<svg width="250" height="250" viewBox="0 0 250 250" fill="none" xmlns="http://www.w3.org/2000/svg">
<g clip-path="url(#clip0_217_6923)">
<path d="M193.89 47.32C191.43 51.12 188.9 54.87 186.3 58.57C180.967 66.19 175.3 73.5767 169.3 80.73C163.75 87.39 158 93.89 152.77 100.81C147.445 107.657 143.025 115.162 139.62 123.14C136.453 131.044 134.276 139.311 133.14 147.75C130.69 164.9 131.63 182.32 132.91 199.52C133.21 203.65 133.17 208.1 134.52 212.05C135.175 213.871 136.256 215.51 137.672 216.83C139.087 218.15 140.797 219.113 142.66 219.64C146.88 221.05 151.37 220.89 155.74 221.19C159.46 221.44 163.58 221.94 166.49 224.51C167.603 225.388 168.354 226.645 168.599 228.041C168.844 229.438 168.567 230.875 167.82 232.08C166.18 234.55 163.01 235.69 160.26 236.3C158.296 236.679 156.313 236.95 154.32 237.11C151.96 237.36 149.61 237.56 147.25 237.73C142.4 238.06 137.55 238.23 132.69 238.21C123.18 238.189 113.683 237.501 104.27 236.15C102.01 235.83 99.74 235.49 97.5 235.06C95.7857 234.813 94.1469 234.192 92.7 233.24C90.12 231.36 89.76 228.02 90.88 225.24C93.95 217.5 103.46 218.78 110.14 218.58C113.69 218.48 117.71 217.94 120.23 215.17C123.1 212.03 123.02 207.24 123.23 203.25C123.837 193.417 124.17 183.577 124.23 173.73C124.23 164.16 124.23 154.54 123.33 145C122.562 135.956 120.629 127.049 117.58 118.5C114.669 110.714 110.984 103.24 106.58 96.19C97.78 81.87 86.85 69.03 75.93 56.32C75.51 55.83 76.33 55.26 76.74 55.74L77.35 56.45L77.4199 56.39C76.8083 55.6319 76.3778 54.7442 76.1612 53.7946C75.9446 52.8449 75.9475 51.8583 76.1699 50.91C76.9199 47.27 80.42 45.4 83.75 44.56C87.8676 43.6811 92.0407 43.0863 96.24 42.78C100.86 42.2667 105.487 41.8533 110.12 41.54C119.4 40.92 128.69 40.69 137.99 40.85C156.628 41.1817 175.204 43.0885 193.52 46.55C193.604 46.561 193.684 46.5928 193.753 46.6426C193.822 46.6923 193.877 46.7584 193.913 46.8348C193.95 46.9113 193.967 46.9957 193.963 47.0804C193.959 47.1651 193.934 47.2475 193.89 47.32V47.32Z" fill="white"/>
<path d="M182.4 53.3901L183.16 53.8901C180.66 57.2801 178.69 61.0201 176.16 64.4201C173.37 68.2101 170.99 72.3001 167.96 75.9301C162.6 82.3301 157.56 89.0001 152.16 95.3701C147.838 100.51 142.913 105.11 137.49 109.07C136.36 109.89 135.14 110.59 133.95 111.33C133.776 111.37 133.594 111.37 133.42 111.33C131.027 110.47 128.728 109.368 126.56 108.04C126.29 107.88 125.98 107.74 125.97 107.36C126.871 106.776 127.846 106.315 128.87 105.99C134.781 103.33 140.192 99.6773 144.87 95.1901C145.179 94.8126 145.535 94.4765 145.93 94.1901C146.038 94.1354 146.152 94.0951 146.27 94.0701C148.91 93.7901 149.86 92.6701 150.04 89.6101C150.059 89.4931 150.093 89.379 150.14 89.2701C151.91 86.6101 153.88 84.0901 155.68 81.4401C158.347 77.4401 160.97 73.4401 163.55 69.4401C163.708 69.1605 163.895 68.899 164.11 68.6601C164.252 68.5212 164.418 68.4093 164.6 68.3301C164.964 68.14 165.267 67.8519 165.475 67.4985C165.684 67.145 165.789 66.7403 165.78 66.3301C165.801 65.0416 166.205 63.7886 166.94 62.7301C167.1 62.4601 167.38 62.1501 167.21 61.8601C167.04 61.5701 166.56 61.6801 166.21 61.7301C161.62 62.4401 157.04 63.1501 152.45 63.7301C149.79 64.1001 147.12 64.1901 144.45 64.3801C139.51 64.7334 134.57 65.0368 129.63 65.2901C127.319 65.4701 124.996 65.44 122.69 65.2001C121.972 65.1285 121.251 65.1018 120.53 65.1201C114.74 65.1201 108.96 64.7901 103.18 64.4601C100.83 64.3301 98.4799 64.0701 96.1199 64.1601C94.2299 64.2301 92.3999 63.6201 90.5199 63.6101C90.2549 63.568 90.0042 63.4616 89.7899 63.3001C89.4189 62.9006 89.0843 62.4689 88.7899 62.0101C88.5532 61.6143 88.1869 61.3125 87.7532 61.1558C87.3195 60.9991 86.845 60.9971 86.4099 61.1501C86.2502 61.2367 86.0669 61.2699 85.8869 61.2447C85.7069 61.2195 85.5397 61.1373 85.4099 61.0101C84.6716 60.4224 83.7861 60.0488 82.8499 59.9301C82.6799 59.2501 83.3099 59.3701 83.6099 59.1601C84.3799 58.8501 84.9699 60.0901 85.7799 59.4001C86.1799 59.0001 86.6499 59.1901 87.0999 59.2701C88.3668 59.3819 89.6434 59.2874 90.8799 58.9901C92.8799 59.0701 94.8799 58.9901 96.8799 58.9901C101.64 58.9301 106.36 59.5501 111.11 59.6401C115.57 59.7301 120.01 60.2701 124.5 59.6401C127.57 59.1901 130.71 59.2101 133.82 59.0401C137.96 58.8201 142.1 58.4401 146.24 58.2001C154.52 57.7301 162.61 55.8601 170.82 54.8901C173.843 54.5779 176.833 54.0092 179.76 53.1901C180.188 53.0285 180.646 52.9627 181.102 52.9972C181.558 53.0318 182.001 53.1659 182.4 53.3901Z" fill="#E76F9D"/>
<path d="M97.0099 46.64C95.3699 48.27 94.2299 48.48 92.9099 47.4C92.799 47.342 92.7016 47.2612 92.6241 47.163C92.5465 47.0648 92.4906 46.9513 92.4599 46.83C92.385 46.4638 92.385 46.0862 92.4599 45.72C92.4996 45.6089 92.5499 45.5017 92.6098 45.4C95.3198 44.4 95.9198 42.02 96.6098 39.67C96.6654 39.4981 96.6734 39.3144 96.6329 39.1383C96.5924 38.9622 96.505 38.8004 96.3799 38.67C96.2631 38.4225 96.1985 38.1536 96.1898 37.88C95.8704 36.8351 95.1517 35.9584 94.1898 35.44C93.395 34.6419 92.6722 33.7752 92.0298 32.85C91.2498 32.02 90.4398 31.22 89.6098 30.44C88.7798 29.66 87.3899 29 86.4299 28.07C85.4113 26.9284 84.0559 26.1404 82.5599 25.82L82.0799 25.74C81.1799 25.55 80.4299 25.66 80.2099 26.74C79.7399 27.11 79.0698 26.8 78.6098 27.2C77.5255 27.8185 76.7228 28.8327 76.3699 30.03C76.2999 30.22 76.2199 30.42 76.1599 30.61C76.0623 30.9041 75.9454 31.1914 75.8099 31.47C75.768 31.5643 75.7178 31.6547 75.6599 31.74C75.5415 31.9084 75.478 32.1092 75.478 32.315C75.478 32.5208 75.5415 32.7216 75.6599 32.89C76.9599 34.76 78.8199 36.12 80.1999 37.89C80.7829 38.5896 81.327 39.3207 81.8299 40.08C82.1999 40.86 82.7099 41.56 83.0899 42.33C83.7474 43.5029 84.0918 44.8254 84.0899 46.17L83.5899 46.61C83.2694 46.7242 82.9298 46.7752 82.5899 46.76C81.8299 46.26 81.6899 45.32 81.1299 44.67C80.8099 44.29 80.6399 43.76 80.1299 43.59C79.4492 43.0569 78.8613 42.4149 78.3898 41.69C77.6138 40.5885 76.6284 39.6507 75.4899 38.93C74.1784 37.7305 72.6468 36.7966 70.9799 36.18C70.7265 36.0739 70.4546 36.0192 70.1799 36.0192C69.9052 36.0192 69.6332 36.0739 69.3799 36.18C68.6998 36.3667 68.045 36.6353 67.4299 36.98C67.1951 37.1009 66.971 37.2414 66.7599 37.4C66.6746 37.4669 66.5843 37.5271 66.4899 37.58C65.4885 38.3291 64.7555 39.3812 64.3999 40.58C64.2903 40.8528 64.2903 41.1573 64.3999 41.43C64.3999 41.52 64.4799 41.62 64.5099 41.71C64.9349 42.4221 65.4272 43.0918 65.9799 43.71C66.0899 43.83 66.1999 43.95 66.2999 44.08C67.2299 45.44 68.0599 46.86 68.9399 48.25C69.2299 48.71 69.5399 49.15 69.8499 49.6C70.1599 50.05 70.5299 50.72 70.8499 51.3C71.2799 52.15 71.5798 53.05 71.9998 53.91C72.0563 54.0807 72.0734 54.2619 72.0499 54.44C72.0098 54.6183 71.9283 54.7845 71.8119 54.9253C71.6954 55.066 71.5474 55.1773 71.3799 55.25C71.2612 55.2751 71.1385 55.2751 71.0199 55.25C68.2399 55.31 66.6399 53.53 65.1899 51.51C64.8713 51.0201 64.6223 50.4884 64.4499 49.93C64.1211 48.8956 63.7028 47.8918 63.1999 46.93C62.9299 46.44 62.6198 45.93 62.3598 45.49C62.2027 45.1213 61.9429 44.8056 61.6114 44.5804C61.2798 44.3552 60.8905 44.2301 60.4899 44.22C59.8536 44.0694 59.2824 43.7189 58.8598 43.22C58.7324 43.0888 58.6351 42.9313 58.5746 42.7586C58.5142 42.5859 58.4921 42.4021 58.5099 42.22C58.7599 41.82 59.1399 41.97 59.5099 41.97C61.4299 41.97 62.3399 40.6 61.3799 38.97C60.4199 37.34 60.3799 35.32 59.9899 33.48C60.2854 33.2773 60.5338 33.0135 60.7184 32.7064C60.9031 32.3993 61.0195 32.0561 61.0599 31.7C61.3704 30.2491 61.9951 28.8837 62.8898 27.7C62.9418 27.6711 63.0004 27.656 63.0599 27.656C63.1194 27.656 63.1779 27.6711 63.2299 27.7C63.7234 28.9264 64.481 30.0291 65.4488 30.9295C66.4167 31.83 67.5711 32.5062 68.8299 32.91C69.1885 33.0959 69.5896 33.1845 69.9932 33.167C70.3968 33.1494 70.7887 33.0263 71.1299 32.81C71.4566 32.6266 71.7287 32.3595 71.918 32.0361C72.1074 31.7127 72.2071 31.3448 72.2071 30.97C72.2071 30.5953 72.1074 30.2273 71.918 29.9039C71.7287 29.5806 71.4566 29.3134 71.1299 29.13C70.3922 28.634 69.5962 28.231 68.7599 27.93C68.164 27.7389 67.6538 27.3453 67.3178 26.8174C66.9817 26.2896 66.8409 25.6608 66.9198 25.04C67.0844 24.2549 67.0042 23.4381 66.6899 22.7C66.589 22.5897 66.5109 22.4606 66.4599 22.32C66.3899 21.92 66.2598 22.32 66.1698 22.32C65.7098 22.51 65.2299 22.32 64.7699 22.39C63.4783 22.8442 62.3809 23.7263 61.6599 24.89C61.0899 25.66 60.5898 26.48 60.0298 27.25C59.7898 27.58 59.6198 28.08 59.0298 27.91C58.9369 27.7333 58.8943 27.5345 58.9066 27.3352C58.919 27.136 58.9858 26.9439 59.0999 26.78C60.1072 24.4398 61.4923 22.281 63.1999 20.39C63.9799 19.65 64.7299 18.88 65.4799 18.1C67.162 16.6331 69.1014 15.4905 71.1999 14.73C74.3899 13.94 77.6399 14.12 80.8699 14.19C82.5648 14.2934 84.1905 14.8992 85.5399 15.93C88.7455 18.0481 91.7996 20.3871 94.6799 22.93C96.0495 24.2192 97.2101 25.7138 98.1199 27.36C98.4854 27.9926 98.7804 28.6632 98.9998 29.36C99.9398 34.01 100.51 38.66 99.2099 43.36C98.5899 44.46 98.2899 45.87 97.0099 46.64Z" fill="#FEB433"/>
<path d="M182.4 53.3901C181.483 53.1062 180.494 53.1558 179.61 53.5301C176.542 54.364 173.412 54.9492 170.25 55.2801C166.323 55.8601 162.393 56.4568 158.46 57.0701C154.73 57.6501 151 58.1901 147.22 58.4201C143.44 58.6501 139.53 59.0301 135.68 59.3301C134.29 59.4301 132.88 59.5101 131.5 59.5201C127.07 59.5201 122.69 60.5201 118.26 60.2801C112.78 60.0301 107.26 59.8701 101.8 59.4201C98.74 59.1701 95.64 59.4201 92.57 59.3501C91.94 59.3501 91.28 59.5401 90.71 59.1101C90.71 58.9201 90.81 58.8201 90.97 58.7501C91.3434 58.6193 91.6782 58.397 91.9437 58.1035C92.2092 57.81 92.397 57.4548 92.49 57.0701C92.69 56.5001 92.75 55.8201 93.42 55.5101C94.74 53.6401 96.82 53.7901 98.73 53.6401C100.64 53.4901 102.49 53.6401 104.37 53.6401C109.68 53.5601 115 53.6401 120.3 53.3401C125.6 53.0401 130.82 52.8701 136.07 52.6201C137.55 52.5501 139.02 52.4701 140.5 52.4401C146.17 52.3401 151.84 52.3701 157.5 52.1401C160.42 52.0201 163.33 51.9601 166.24 52.0101C167.95 52.0101 169.66 52.2701 171.38 52.2101C172.24 52.5301 173.16 52.1501 174.03 52.4301H175.46C176.16 52.7401 176.93 52.3701 177.63 52.6501H178.81C179.43 52.9501 180.13 52.5801 180.75 52.8701C181.33 52.9301 182.01 52.7101 182.4 53.3901Z" fill="#F2A7C8"/>
<path d="M127.49 123.21H128.92C129.23 123.39 129.62 123.42 129.92 123.71L130.65 124.88C131.52 125.5 131.43 126.54 131.77 127.39C131.87 127.76 131.87 128.15 131.97 128.52C132.002 128.622 132.029 128.725 132.05 128.83C132.083 129.185 132.146 129.536 132.24 129.88C132.269 129.975 132.292 130.072 132.31 130.17C132.324 130.507 132.371 130.842 132.45 131.17C132.45 131.27 132.51 131.36 132.53 131.46C132.544 131.872 132.604 132.281 132.71 132.68C132.75 132.783 132.78 132.891 132.8 133C132.823 133.531 132.886 134.059 132.99 134.58C132.99 134.716 132.97 134.85 132.93 134.98C133.27 136.86 133.22 138.77 133.41 140.66C133.755 144.861 133.805 149.082 133.56 153.29C133.42 156.67 133.56 160.05 133.34 163.42C133.16 166.34 133.16 169.28 132.97 172.2C133.001 172.342 133.001 172.488 132.97 172.63C132.579 173.948 132.51 175.34 132.77 176.69V176.69C133 178.061 133.098 179.45 133.06 180.84C133.24 185.23 133.25 189.64 133.06 194.03C132.93 197.46 132.68 200.88 132.64 204.31C132.64 207.31 132.64 210.31 132.64 213.31C132.665 213.511 132.623 213.715 132.52 213.89V213.89C132.23 214.25 132.59 214.74 132.26 215.09C131.789 216.974 130.979 218.756 129.87 220.35C129.63 220.83 129.253 221.227 128.786 221.491C128.319 221.754 127.784 221.872 127.25 221.83H125.32C123.89 221.95 122.57 220.76 122.14 218.97C122.07 218.18 122.14 217.4 122.03 216.62C122.01 216.501 122.01 216.379 122.03 216.26C122.12 215.809 122.17 215.35 122.18 214.89C122.18 214.77 122.18 214.66 122.25 214.54C122.356 214.136 122.394 213.717 122.36 213.3C122.702 211.236 123.186 209.197 123.81 207.2C124.07 206.82 124.01 206.34 124.19 205.93C124.216 205.868 124.258 205.815 124.313 205.776C124.368 205.737 124.433 205.714 124.5 205.71C124.628 205.768 124.731 205.871 124.79 206C125.2 207.68 124.68 209.33 124.56 211C124.412 212.116 124.622 213.251 125.16 214.24C125.74 215.17 126.11 215.14 126.71 214.24C127.52 213 127.45 211.55 127.54 210.18C127.94 204.18 128.64 198.18 128.98 192.18C129.09 190.07 129.25 187.96 129.3 185.84C129.42 180.74 129.59 175.63 129.94 170.53C130.09 168.42 129.94 166.3 129.99 164.18C129.99 160.11 129.99 156.03 129.99 151.96C129.91 145.69 129.62 139.43 129.5 133.16C129.485 132.282 129.333 131.411 129.05 130.58C128.91 130.19 128.7 129.78 128.25 129.78C127.8 129.78 127.69 130.26 127.56 130.63C127.24 131.51 127.51 132.47 127.21 133.35C127.155 133.477 127.055 133.581 126.93 133.64C126.6 133.64 126.56 133.31 126.5 133.06C126.491 132.655 126.458 132.251 126.4 131.85C126.364 131.745 126.334 131.638 126.31 131.53C126.311 131.15 126.239 130.773 126.1 130.42C126.063 130.309 126.037 130.195 126.02 130.08C125.991 129.669 125.928 129.26 125.83 128.86C125.805 128.734 125.805 128.605 125.83 128.48C125.991 127.485 125.971 126.468 125.77 125.48C125.759 125.339 125.779 125.198 125.827 125.065C125.875 124.932 125.951 124.811 126.05 124.71C126.13 124.663 126.195 124.594 126.236 124.51C126.277 124.426 126.292 124.332 126.28 124.24C126.57 123.69 126.8 123.17 127.49 123.21Z" fill="#C8E7DF"/>
<path d="M180.75 45.66C181.8 45.6043 182.852 45.685 183.88 45.9C184.21 45.74 184.4 45.96 184.59 46.18L185.08 46.88C185.39 47.04 185.57 47.25 185.32 47.6V48.08C185.56 48.43 185.39 48.63 185.08 48.8L184.59 49.5C184.33 49.78 183.94 49.82 183.59 49.99H180.74C180.29 49.7 179.74 49.99 179.3 49.77C176.14 49.46 172.99 49.16 169.85 48.67C166.95 48.22 164.02 47.91 161.1 47.6C157.86 47.26 154.62 46.97 151.37 46.68C150.06 46.56 148.74 46.52 147.44 46.46C144.89 46.34 142.34 46.19 139.79 46.12C133.024 45.9133 126.257 45.85 119.49 45.93C117.3 45.93 115.11 46.08 112.91 46.14C109.64 46.23 106.38 45.79 103.1 45.87C102.297 45.9047 101.506 45.6531 100.87 45.16C100.789 45.0803 100.739 44.9737 100.73 44.86C100.884 44.1965 101.095 43.5474 101.36 42.92C101.421 42.8206 101.499 42.7326 101.59 42.66C101.91 42.5163 102.246 42.4122 102.59 42.35C102.706 42.3251 102.825 42.3251 102.94 42.35C103.452 42.4539 103.982 42.4264 104.48 42.27V42.27C104.585 42.1739 104.708 42.101 104.842 42.0561C104.977 42.0113 105.119 41.9956 105.26 42.01C106.273 42.22 107.318 42.22 108.33 42.01H110.24C111.67 41.7 113.14 42.13 114.57 41.79H121.28C123.28 41.57 125.28 41.79 127.28 41.69C129.28 41.59 131.02 41.75 132.9 41.64C133.049 41.5995 133.205 41.5919 133.357 41.6179C133.509 41.6438 133.654 41.7025 133.78 41.79H137.61C139.23 41.983 140.863 42.0298 142.49 41.93C142.632 41.8983 142.779 41.8962 142.922 41.9237C143.065 41.9512 143.2 42.0078 143.32 42.09H145.23C145.931 42.2548 146.66 42.2548 147.36 42.09C147.627 42.0531 147.898 42.1173 148.12 42.27H150.03C150.499 42.4396 151.012 42.4396 151.48 42.27C151.738 42.2526 151.993 42.327 152.2 42.48L153.88 42.71C154.02 42.591 154.197 42.5256 154.38 42.5256C154.564 42.5256 154.741 42.591 154.88 42.71H155.35C155.545 42.7917 155.754 42.8338 155.965 42.8338C156.177 42.8338 156.386 42.7917 156.58 42.71C156.832 42.6892 157.082 42.7642 157.28 42.92H158.23C158.699 43.0896 159.212 43.0896 159.68 42.92C159.938 42.9026 160.193 42.977 160.4 43.13L161.6 43.36C161.74 43.241 161.917 43.1756 162.1 43.1756C162.284 43.1756 162.461 43.241 162.6 43.36L163.8 43.59C163.94 43.471 164.117 43.4056 164.3 43.4056C164.484 43.4056 164.661 43.471 164.8 43.59L166 43.82C166.137 43.6949 166.315 43.6255 166.5 43.6255C166.686 43.6255 166.864 43.6949 167 43.82C167.687 44.074 168.425 44.1564 169.15 44.06C169.51 44.34 169.99 44.06 170.35 44.28H171.79C172.15 44.56 172.62 44.28 172.99 44.5C175.16 44.7 177.28 45.25 179.47 45.24C179.76 45.74 180.3 45.39 180.75 45.66Z" fill="#C8E7DF"/>
<path d="M133.95 111.17C135.87 109.62 138.07 108.47 139.95 106.88C143.794 103.718 147.391 100.268 150.71 96.5599C155 91.6399 159.01 86.4899 163.11 81.4099C167.11 76.4899 171.22 71.6899 174.51 66.2499C176.01 63.7699 177.78 61.4399 179.51 59.0899C180.143 58.1344 180.702 57.1315 181.18 56.0899C181.654 55.2077 182.342 54.4583 183.18 53.9099C185 54.8399 185.5 56.9099 184.51 59.0199C183.52 61.1299 181.79 62.9199 180.41 64.8599C179.253 66.374 177.972 67.7889 176.58 69.0899C171.546 74.193 167.061 79.8104 163.2 85.8499C159.43 91.7199 155.1 97.1999 151.05 102.85C149.64 104.85 148.46 106.99 147.05 108.96C144.85 112.16 141.593 114.483 137.85 115.52C137.808 115.556 137.755 115.576 137.7 115.576C137.645 115.576 137.592 115.556 137.55 115.52C137.538 114.737 137.29 113.975 136.839 113.335C136.387 112.695 135.754 112.205 135.02 111.93C134.6 111.72 134.11 111.67 133.95 111.17Z" fill="#DC497D"/>
<path d="M89.82 63.1999L90.26 63.4299C91.8015 64.8809 93.1981 66.4784 94.43 68.1999C96.2854 70.2382 97.9962 72.4034 99.55 74.6799C99.5988 74.7865 99.6389 74.8969 99.67 75.0099C100.329 78.3852 101.67 81.5906 103.61 84.4299C104.93 86.5299 106.21 88.6399 107.42 90.7999C108.5 92.5698 109.672 94.2821 110.93 95.9299C112.17 97.7099 113.99 97.9299 115.93 97.5599C116.344 97.7577 116.706 98.0513 116.984 98.4165C117.262 98.7817 117.449 99.2079 117.53 99.6599C115.99 102.1 116.25 104.28 118.3 106.5C119.42 107.71 121.67 108.19 122.63 106.04C122.726 105.777 122.896 105.548 123.12 105.38C123.714 105.489 124.274 105.739 124.75 106.11C125.227 106.481 125.608 106.961 125.86 107.51C125.683 107.698 125.469 107.848 125.232 107.952C124.994 108.055 124.739 108.109 124.48 108.11C122.489 108.53 120.453 108.698 118.42 108.61C118.103 108.548 117.774 108.609 117.5 108.78C117.11 108.97 116.91 108.7 116.73 108.43C114.58 105.19 111.87 102.43 109.43 99.4299C107.77 97.4878 106.224 95.451 104.8 93.3299C103.03 90.5799 100.99 88.0099 98.9501 85.4299C95.8101 81.4299 92.9501 77.2899 89.8701 73.2099C88.5201 71.3799 87.12 69.5799 85.69 67.8099C84.4061 66.275 83.3425 64.5686 82.53 62.7399C82.3131 62.426 82.18 62.0619 82.1432 61.6822C82.1065 61.3024 82.1673 60.9195 82.32 60.5699C82.37 60.4099 82.11 60.2299 82.32 60.0899C82.3663 60.047 82.427 60.0232 82.49 60.0232C82.5531 60.0232 82.6138 60.047 82.66 60.0899C83.66 62.4999 85.9 62.4499 87.93 62.8299C88.59 62.9299 89.26 62.7799 89.82 63.1999Z" fill="#BF98B0"/>
<path d="M131.8 228.05H134.92C135.87 227.73 136.87 228.14 137.81 227.81H138.28C138.73 227.52 139.28 227.88 139.73 227.58C141.09 227.58 142.4 226.8 143.79 227.34C144.206 227.579 144.551 227.924 144.79 228.34C144.99 228.879 144.99 229.471 144.79 230.01C144.543 230.42 144.199 230.763 143.79 231.01L142.59 231.5C142.25 231.69 141.85 231.6 141.54 231.77C141.87 231.77 142.22 231.44 142.59 231.77H150.28C150.97 231.47 151.74 231.86 152.44 231.54H152.91C153.36 231.25 153.91 231.61 154.36 231.31H154.59C155.04 231.02 155.59 231.38 156.04 231.08H156.49C157.11 230.77 157.81 231.17 158.42 230.85C159.27 230.74 159.97 231.34 160.8 231.33C161.63 231.57 161.63 231.57 161.28 232.04C158.61 234.63 155.09 234.98 151.69 235.65C151.33 235.92 150.84 235.6 150.48 235.88L147.61 236.14C147.24 236.39 146.77 236.08 146.4 236.36H144.73C144.11 236.65 143.42 236.27 142.8 236.58H141.13C140.35 236.87 139.5 236.48 138.72 236.8H137.29C137.185 236.894 137.061 236.966 136.926 237.009C136.792 237.052 136.65 237.066 136.51 237.05C135.99 236.81 135.4 237.05 134.87 236.82C134.87 236.19 135.47 236.28 135.87 236.17C136.596 236.026 137.28 235.718 137.87 235.27C136.4 234.658 134.831 234.319 133.24 234.27C127.71 233.76 122.17 233.79 116.62 233.73C113.068 233.762 109.523 233.427 106.04 232.73C104.372 232.46 102.8 231.772 101.47 230.73C101 230.33 100.47 229.95 100.47 229.19C101.21 228.61 101.73 229.09 102.26 229.54H102.73C103.793 229.577 104.844 229.773 105.85 230.12C106.31 230.59 106.85 230.28 107.29 230.21C107.422 230.2 107.555 230.22 107.679 230.266C107.804 230.313 107.916 230.386 108.01 230.48V230.48C108.45 230.77 108.86 230.48 109.28 230.48C109.44 230.459 109.604 230.473 109.758 230.524C109.912 230.574 110.053 230.658 110.17 230.77V230.77C110.868 230.975 111.611 230.975 112.31 230.77C112.447 230.761 112.584 230.781 112.713 230.827C112.842 230.874 112.96 230.946 113.06 231.04H113.29C114.144 231.25 115.036 231.25 115.89 231.04C116.03 231.028 116.171 231.046 116.304 231.093C116.436 231.14 116.558 231.213 116.66 231.31H117.36C118.223 231.525 119.126 231.525 119.99 231.31C120.167 231.276 120.349 231.283 120.523 231.332C120.696 231.381 120.856 231.469 120.99 231.59H121.49C123.239 231.745 124.996 231.775 126.75 231.68C126.849 231.676 126.945 231.646 127.03 231.594C127.114 231.541 127.183 231.468 127.23 231.38C126.96 230.7 126.23 230.21 126.42 229.38C126.405 229.224 126.427 229.067 126.485 228.921C126.542 228.775 126.633 228.644 126.75 228.54C127.459 228.123 128.279 227.934 129.1 228C129.96 228.15 130.92 227.74 131.8 228.05Z" fill="#C8E7DF"/>
<path d="M82.3405 60.55C82.5971 62.7076 83.5199 64.7314 84.9805 66.34C89.6605 72.24 93.9805 78.43 98.5405 84.34C100.54 86.93 102.65 89.44 104.43 92.17C106.732 95.51 109.22 98.7184 111.88 101.78C113.31 103.49 114.69 105.25 116.2 106.89C116.73 107.46 116.7 108.33 117.4 108.74C117.924 109.038 118.34 109.493 118.59 110.04C119.59 111.594 120.868 112.95 122.36 114.04L122.64 114.23C123.1 114.567 123.63 114.796 124.19 114.9C126.258 115.602 128.398 116.068 130.57 116.29C132.432 116.432 134.304 116.225 136.09 115.68C136.548 115.442 137.071 115.358 137.58 115.44L137.81 115.52C137.8 115.593 137.8 115.667 137.81 115.74C137.883 115.826 137.919 115.938 137.91 116.05C137.798 116.556 137.641 117.052 137.44 117.53C136.741 118.678 135.789 119.653 134.658 120.381C133.527 121.108 132.246 121.569 130.91 121.73C130.237 121.54 129.524 121.54 128.85 121.73C125.757 121.48 122.85 120.149 120.64 117.97C120.37 117.61 120.24 117.15 119.81 116.97L119.35 116.72C118.004 115.842 116.853 114.694 115.97 113.35L115.51 112.88C115.059 112.554 114.658 112.163 114.32 111.72C112.126 108.761 110.138 105.653 108.37 102.42C108.314 102.338 108.277 102.244 108.261 102.145C108.245 102.047 108.252 101.946 108.28 101.85L108.07 101.6C106.863 100.441 105.82 99.122 104.97 97.68C102.19 93.56 99.6804 89.26 96.7404 85.24C96.0804 84.34 95.4604 83.42 94.8004 82.51C94.5804 82.2 94.2504 81.91 94.3604 81.51L93.1904 79.93C92.3173 79.0108 91.5769 77.9741 90.9904 76.85C89.9648 75.5341 89.0133 74.162 88.1404 72.74V72.74C87.8904 72.55 87.8304 72.24 87.6604 72C87.6641 71.8491 87.6209 71.7007 87.5367 71.5753C87.4526 71.45 87.3316 71.3538 87.1904 71.3C86.9304 71.12 86.8805 70.8 86.7005 70.56C86.7005 70.49 86.7005 70.42 86.7005 70.34C86.0035 69.6436 85.4378 68.8272 85.0304 67.93C85.0304 67.51 84.6804 67.31 84.5304 66.93C83.7404 66.42 83.6204 65.47 83.1104 64.76C82.5292 64.1529 82.1157 63.4051 81.9104 62.59C82.1304 62 81.4005 61.1 82.3405 60.55Z" fill="#C8E7DF"/>
<path d="M100.82 44.9299V45.1699C100.5 45.6699 100.18 46.1699 99.8697 46.6599C99.5597 47.1499 99.1897 48.0399 98.2697 48.0599C97.3497 48.0799 97.3997 47.1199 96.9897 46.6199L98.8797 43.5099C99.9117 40.6735 100.208 37.6218 99.7397 34.6399C99.6097 32.7501 99.2504 30.8831 98.6697 29.0799L97.9597 27.4799C95.1955 22.0943 90.6308 17.8481 85.0597 15.4799C83.4136 14.7907 81.7014 14.2714 79.9497 13.9299C77.7181 13.4046 75.3826 13.5295 73.2197 14.2899C72.4941 14.484 71.7797 14.7177 71.0797 14.9899C69.1286 15.8549 67.2969 16.9674 65.6297 18.2999C64.7907 18.9607 63.9988 19.6791 63.2597 20.4499C60.3482 23.6169 58.4442 27.5781 57.7897 31.8299C57.7198 32.3442 57.7198 32.8656 57.7897 33.3799C57.7417 33.7431 57.6005 34.0876 57.3797 34.3799C56.9055 35.363 56.6923 36.4516 56.7606 37.541C56.8289 38.6303 57.1764 39.6838 57.7697 40.5999C57.9697 40.9299 58.1597 41.2599 58.3297 41.5999C58.4997 41.9399 58.4897 42.0999 58.6297 42.3199L59.0897 43.0399C59.0559 43.2319 59.0326 43.4255 59.0197 43.6199C58.8997 44.2099 58.7597 44.7999 58.0197 44.9399C57.7247 44.9873 57.4222 44.9354 57.1598 44.7925C56.8974 44.6495 56.6899 44.4235 56.5697 44.1499C56.4797 44.0199 56.4097 43.8799 56.3297 43.7399C56.2008 43.527 56.148 43.2768 56.1797 43.0299C55.7665 41.9403 55.4519 40.8158 55.2397 39.6699C55.0951 39.193 54.9749 38.7091 54.8797 38.2199C54.8797 36.2899 54.7197 34.3599 54.8797 32.4199C54.8797 32.0399 54.7597 31.6299 55.0097 31.2599C54.8597 30.6799 55.2497 30.1499 55.2097 29.5799C55.1974 29.4567 55.2167 29.3324 55.2657 29.2187C55.3146 29.105 55.3917 29.0056 55.4897 28.9299C56.0497 27.4099 56.4897 25.8299 57.1597 24.3599C57.1599 24.1636 57.2178 23.9717 57.3263 23.8081C57.4347 23.6445 57.589 23.5165 57.7697 23.4399C57.9397 23.1599 58.1897 22.9099 58.1697 22.5399C58.4732 21.5531 59.0914 20.6926 59.9297 20.0899L60.3197 19.6199C60.3928 19.4345 60.5054 19.2673 60.6497 19.1299C60.9358 18.9423 61.1725 18.6884 61.3397 18.3899C61.6752 17.8559 62.1628 17.4345 62.7397 17.1799C63.313 16.9398 63.8057 16.5408 64.1597 16.0299C64.2258 15.8903 64.3268 15.77 64.4529 15.6806C64.579 15.5913 64.726 15.536 64.8797 15.5199C65.5094 15.2321 66.0793 14.8284 66.5597 14.3299C66.659 14.1583 66.8071 14.0201 66.9852 13.9329C67.1632 13.8456 67.3632 13.8133 67.5597 13.8399L71.1497 12.5999C71.5297 12.3499 71.9997 12.5999 72.3897 12.3899H72.8297C73.2997 12.1499 73.8297 12.4499 74.3097 12.1899H75.9397C76.0081 12.1106 76.0924 12.0464 76.1872 12.0017C76.2819 11.9569 76.385 11.9324 76.4897 11.9299C77.9497 12.0799 79.4297 11.8399 80.8897 12.0599C82.1918 12.3165 83.4774 12.6504 84.7397 13.0599C85.0299 13.0087 85.3289 13.0569 85.5884 13.1966C85.8479 13.3363 86.0527 13.5594 86.1697 13.8299L90.9597 17.1999C91.1829 17.1911 91.4025 17.2571 91.5838 17.3876C91.765 17.5181 91.8974 17.7055 91.9597 17.9199L93.8797 19.3499C94.1081 19.3433 94.332 19.4151 94.5139 19.5533C94.6959 19.6916 94.825 19.8881 94.8797 20.1099C95.2012 20.5702 95.6214 20.9528 96.1097 21.2299C96.5147 21.4829 96.8567 21.8249 97.1097 22.2299C97.2491 22.5569 97.4823 22.8353 97.7797 23.0299C98.2397 23.1699 98.3297 23.6099 98.5297 23.9599L98.9797 24.4699C99.2251 24.5978 99.4294 24.7923 99.5692 25.0311C99.7089 25.27 99.7784 25.5434 99.7697 25.8199L100.86 27.9299C101.04 28.1399 101.27 28.3299 101.11 28.6499C100.95 28.9699 101.02 29.1699 101.22 29.3899C101.67 29.8499 101.27 30.5599 101.69 31.0299C101.601 31.6154 101.688 32.2138 101.94 32.7499C102.01 33.3899 101.7 34.0799 102.16 34.6699C102.2 34.8003 102.2 34.9396 102.16 35.0699C102.16 36.4499 102.16 37.8299 102.16 39.2099C102.2 39.3369 102.2 39.473 102.16 39.5999C101.72 40.1699 101.94 40.8199 101.94 41.4399C101.97 41.5614 101.97 41.6884 101.94 41.8099C101.902 42.1758 101.76 42.523 101.53 42.8099L101.37 43.0399C100.972 43.5869 100.778 44.2552 100.82 44.9299Z" fill="#FEA046"/>
<path d="M66.0797 43.9999L65.8097 43.7399C65.3477 42.9575 64.7863 42.2382 64.1396 41.5999V41.3399C64.2496 41.0799 64.1396 40.7999 64.2496 40.5399C64.6267 39.2249 65.4328 38.0739 66.5397 37.2699V37.2699C66.8697 37.0199 67.2697 36.8899 67.6297 36.6699C67.7684 36.6006 67.9231 36.5696 68.0778 36.5801C68.2325 36.5907 68.3816 36.6424 68.5097 36.7299C69.7997 40.3399 72.2197 43.4099 73.5097 47.0499C74.5097 49.9799 75.6997 52.8599 76.5097 55.8599C76.8364 57.1023 76.7558 58.4168 76.2796 59.6099C75.6796 61.2599 75.7696 61.4499 77.3596 62.1299C77.4018 62.1745 77.4254 62.2335 77.4254 62.2949C77.4254 62.3563 77.4018 62.4154 77.3596 62.4599L75.9297 63.1699C74.4959 63.3599 73.0434 63.3599 71.6096 63.1699C70.9296 63.1699 70.3196 62.9799 70.1396 62.1699C70.0735 62.0655 70.0288 61.9489 70.0081 61.827C69.9875 61.7051 69.9915 61.5803 70.0197 61.4599C70.1609 61.1563 70.3873 60.9001 70.6713 60.7226C70.9553 60.5451 71.2848 60.4538 71.6197 60.4599C71.7857 60.4782 71.9536 60.4613 72.1127 60.4103C72.2717 60.3594 72.4183 60.2755 72.5428 60.1642C72.6673 60.0529 72.7669 59.9167 72.8353 59.7643C72.9037 59.612 72.9392 59.4469 72.9397 59.2799C73.1689 58.2234 73.0604 57.1215 72.6297 56.1299C72.2472 55.5723 71.9819 54.943 71.8497 54.2799V53.8099C71.6996 52.8217 71.2732 51.8961 70.6197 51.1399C70.168 50.6843 69.8498 50.1137 69.6997 49.4899C69.4097 49.0199 69.1396 48.4899 68.8596 48.0499C67.9896 46.6799 67.4197 45.0799 66.0797 43.9999Z" fill="#FEA046"/>
<path d="M75.8998 30.5701L76.1298 30.0801C76.5532 29.4096 77.0209 28.7682 77.5298 28.1601C77.8998 27.8201 78.2398 27.3501 78.8598 27.6401C80.7798 29.6401 82.8598 31.4901 84.3598 33.8901C86.8919 37.7685 88.6351 42.1078 89.4898 46.6601C89.5186 46.7764 89.5191 46.898 89.4913 47.0145C89.4634 47.1311 89.4081 47.2393 89.3298 47.3301C88.0162 47.4189 86.6968 47.3008 85.4198 46.9801C85.185 46.939 84.9615 46.8492 84.7634 46.7166C84.5654 46.584 84.3972 46.4115 84.2698 46.2101C84.1754 44.788 83.7249 43.4125 82.9598 42.2101C82.5722 41.4795 82.1275 40.7807 81.6298 40.1201C80.1872 38.2227 78.6026 36.4376 76.8898 34.7801C76.3156 34.2327 75.8178 33.6104 75.4098 32.9301C75.1298 32.4001 75.4098 31.9301 75.6198 31.5001C75.8098 31.2201 76.1798 30.9801 75.8998 30.5701Z" fill="#FEA046"/>
<path d="M73.2302 59.36C73.1102 60.36 72.7202 60.99 71.5802 60.8C70.9402 60.7 70.5802 61.19 70.1802 61.54C69.8731 61.5999 69.5573 61.5999 69.2502 61.54C68.2502 61.22 67.1902 61.46 66.2502 60.83L64.3302 60.11C64.0202 60.24 63.8202 60.04 63.6102 59.87L62.9202 59.58C62.0475 59.2706 61.2949 58.693 60.7702 57.93C60.0302 57.55 59.8402 56.64 59.1502 56.22C58.8002 55.98 58.7802 55.57 58.6302 55.22L58.3902 54.79C57.6387 53.8271 57.2116 52.6508 57.1702 51.43V51.18C56.8847 50.7336 56.7225 50.2195 56.7002 49.69C56.5895 48.9777 56.5895 48.2524 56.7002 47.54C56.6775 47.2248 56.762 46.9111 56.9402 46.65C57.2502 46.31 57.5702 45.97 57.9402 45.65C58.0198 45.5717 58.1069 45.5014 58.2002 45.44C58.9102 44.82 59.4302 43.9 60.5702 44C61.6402 43.84 62.2202 44.47 62.6902 45.31C62.9302 45.75 63.1902 46.19 63.4402 46.63C63.3402 46.81 63.4402 47.11 63.1002 47.15C62.6302 46.99 62.5402 46.52 62.2902 46.15C62.0402 45.78 61.8702 45.53 61.4402 45.64C61.0102 45.75 60.9202 46.19 60.9002 46.64C60.8954 46.9828 60.9601 47.3229 61.0902 47.64C62.215 50.8021 63.9937 53.6916 66.3102 56.12C68.1216 58.0398 70.5958 59.1982 73.2302 59.36V59.36Z" fill="#EDD6A5"/>
<path d="M119.81 236.93H119.34C118.405 236.72 117.435 236.72 116.5 236.93C116.36 236.943 116.22 236.926 116.087 236.882C115.954 236.837 115.833 236.765 115.73 236.67H115.02C114.239 236.465 113.42 236.465 112.64 236.67C112.503 236.679 112.366 236.659 112.237 236.613C112.108 236.566 111.989 236.494 111.89 236.4H111.66C111.036 236.195 110.363 236.195 109.74 236.4C109.605 236.405 109.472 236.382 109.346 236.334C109.221 236.286 109.106 236.213 109.01 236.12H108.78C108.58 236.028 108.364 235.981 108.145 235.981C107.925 235.981 107.709 236.028 107.51 236.12C107.351 236.155 107.185 236.15 107.029 236.106C106.872 236.063 106.728 235.982 106.61 235.87C106.19 235.58 105.79 235.87 105.38 235.87C105.125 235.874 104.878 235.781 104.69 235.61L102.28 235.14C101.813 235.22 101.334 235.194 100.879 235.064C100.424 234.934 100.004 234.704 99.6496 234.39L98.1996 233.69C97.532 233.54 96.9156 233.217 96.412 232.753C95.9083 232.29 95.5351 231.703 95.3296 231.05L95.1096 230.8C94.9086 230.608 94.7566 230.371 94.6661 230.108C94.5756 229.845 94.5494 229.565 94.5896 229.29C94.7997 228.507 94.7997 227.683 94.5896 226.9C94.5596 226.405 94.6558 225.91 94.8692 225.463C95.0826 225.015 95.4062 224.629 95.8096 224.34C96.1088 224.175 96.355 223.929 96.5196 223.63C97.7641 222.177 99.4438 221.163 101.31 220.74C101.501 220.735 101.688 220.689 101.861 220.607C102.033 220.524 102.186 220.406 102.31 220.26C102.8 219.829 103.373 219.502 103.993 219.297C104.614 219.093 105.269 219.016 105.92 219.07H106.15C106.283 218.938 106.462 218.864 106.65 218.864C106.837 218.864 107.017 218.938 107.15 219.07L107.87 218.85C108.062 218.67 108.317 218.573 108.58 218.58C108.951 218.695 109.348 218.695 109.72 218.58C110.102 218.598 110.476 218.702 110.812 218.886C111.148 219.07 111.438 219.327 111.66 219.64C111.795 219.887 111.866 220.163 111.866 220.445C111.866 220.726 111.795 221.003 111.66 221.25C111.275 221.857 110.751 222.363 110.132 222.729C109.514 223.094 108.817 223.307 108.1 223.35C105.25 223.64 103.1 225.35 100.9 226.95C100.8 227.11 100.73 227.31 100.48 227.27C100.376 227.189 100.308 227.07 100.29 226.94C100.594 226.072 101.063 225.271 101.67 224.58C101.87 224.26 102.3 223.91 102 223.53C101.817 223.337 101.569 223.22 101.304 223.202C101.039 223.183 100.777 223.265 100.57 223.43C98.1696 224.8 96.5196 227.53 98.5696 230.63C100.12 233.02 102.57 234.11 105.24 234.74C108.064 235.288 110.925 235.623 113.8 235.74C118.07 236.09 122.35 235.82 126.61 236.04C128.761 235.986 130.913 236.124 133.04 236.45C133.068 236.467 133.092 236.489 133.111 236.517C133.129 236.544 133.142 236.575 133.146 236.608C133.151 236.641 133.149 236.674 133.139 236.705C133.129 236.737 133.112 236.766 133.09 236.79H131.9C131.754 236.917 131.579 237.006 131.391 237.05C131.202 237.093 131.006 237.09 130.82 237.04C129.808 236.847 128.774 236.803 127.75 236.91C125.416 236.824 123.079 236.864 120.75 237.03C120.597 237.092 120.431 237.115 120.267 237.098C120.103 237.081 119.946 237.023 119.81 236.93Z" fill="#C8E7DF"/>
<path d="M77.3902 62.2801C75.7902 62.4701 75.0302 61.2801 75.7802 59.8201C76.1314 59.1223 76.3324 58.3586 76.3703 57.5784C76.4082 56.7981 76.2821 56.0186 76.0002 55.2901C74.7936 51.4085 73.3748 47.5961 71.7502 43.8701C70.8302 41.8701 69.4302 40.1501 68.7502 38.0501C68.5903 37.6451 68.5023 37.2153 68.4902 36.7801C68.4902 36.4301 68.7302 36.3801 68.9702 36.3201C70.3002 36.3201 70.9102 37.3801 71.5502 38.2401C73.7795 41.2132 75.5306 44.5164 76.7402 48.0301C77.3638 50.2561 78.3431 52.3666 79.6402 54.2801C80.0472 54.8741 80.3113 55.5541 80.4119 56.2671C80.5126 56.9801 80.4469 57.7067 80.2202 58.3901V58.3901C80.0941 58.7599 80.0666 59.1563 80.1402 59.5401C80.1794 59.9503 80.0909 60.3625 79.8868 60.7205C79.6828 61.0785 79.3731 61.3647 79.0002 61.5401L78.5702 61.7701C78.1502 61.9301 77.9402 62.4701 77.3902 62.2801Z" fill="#FE6613"/>
<path d="M89.3403 47.3301C88.261 41.1477 85.551 35.3653 81.4903 30.5801C81.0022 30.0547 80.4514 29.5913 79.8503 29.2001C79.3236 28.8377 78.9385 28.3042 78.7603 27.6901C78.5203 27.5001 78.2503 27.3201 78.5303 26.9601C79.0203 26.4001 79.6603 26.8101 80.2203 26.6901C80.2885 26.6326 80.3696 26.5926 80.4567 26.5734C80.5438 26.5542 80.6343 26.5565 80.7203 26.5801C81.5698 26.9737 82.3633 27.4781 83.0803 28.0801C85.67 30.6159 87.7567 33.6187 89.2303 36.9301C90.6283 39.6593 91.6124 42.5813 92.1503 45.6001C92.3154 46.1377 92.3154 46.7125 92.1503 47.2501C92.0303 47.4901 91.6803 47.3601 91.5503 47.6001C90.8303 48.0201 90.2203 47.6001 89.5503 47.3701C89.4785 47.3695 89.4074 47.3559 89.3403 47.3301V47.3301Z" fill="#FE6613"/>
<path d="M86.95 59.52L85.78 59.37C85.0419 59.0103 84.444 58.4159 84.08 57.68C83.9469 57.5183 83.8483 57.3311 83.79 57.13C83.3106 55.5091 83.1177 53.8171 83.22 52.13C83.1899 51.5458 83.2403 50.9603 83.37 50.39C83.49 50.01 83.49 49.5 84.08 49.46C86.57 50.32 89.19 50.15 91.76 50.23C92.84 50.23 93.27 50.54 93.17 51.64C93.07 52.74 93.17 53.55 93.17 54.51C93.1175 55.4847 92.8835 56.4411 92.48 57.33C92.27 57.74 92.13 58.24 91.48 58.19C91.1 57.59 91.57 57.13 91.75 56.63C92.3192 55.5661 92.4622 54.3255 92.15 53.16C91.98 52.71 91.8 52.16 91.23 52.16C90.66 52.16 90.47 52.73 90.44 53.16C90.2466 54.7072 89.6917 56.1871 88.82 57.48C88.72 57.65 88.56 57.83 88.58 58.02C88.75 59.4 87.98 59.6 86.95 59.52Z" fill="#FEA046"/>
<path d="M84.0799 49.4701C83.6502 50.2941 83.4696 51.2252 83.5599 52.1501C82.9699 52.2901 82.6999 51.8301 82.4299 51.4801C81.3099 50.0301 79.8999 48.8601 78.6599 47.4801C78.0469 46.917 77.3255 46.4848 76.5399 46.2101C75.6411 45.148 74.8878 43.971 74.2999 42.7101C73.2999 40.9801 72.2299 39.3101 71.0899 37.7101C70.8799 37.4101 70.6699 37.1201 70.8299 36.7101C71.5799 36.2801 72.1899 36.7101 72.8299 37.0201C73.7339 37.6269 74.6721 38.1811 75.6398 38.6801C77.4398 39.6801 78.3499 41.5401 79.6999 42.9701C79.8599 43.1401 80.0399 43.3001 80.1999 43.4601C81.1999 44.3001 81.4799 45.6401 82.3599 46.5701H83.5599C83.0199 46.8401 82.6999 47.1401 83.2099 47.7501C83.6199 48.2544 83.9166 48.841 84.0799 49.4701V49.4701Z" fill="#EDD6A5"/>
<path d="M76.6099 46.1699C77.0252 46.1905 77.4316 46.2971 77.8034 46.483C78.1753 46.6689 78.5044 46.9301 78.7699 47.2499C80.1598 48.5381 81.469 49.9107 82.6899 51.3599C82.9534 51.6511 83.2448 51.9157 83.56 52.1499C83.5225 53.8297 83.6836 55.508 84.04 57.1499C83.9373 57.1883 83.8241 57.187 83.7224 57.1463C83.6207 57.1057 83.5378 57.0285 83.4899 56.9299C82.7532 55.8202 81.9055 54.7882 80.9599 53.8499L79.9599 52.8499C79.7511 52.6757 79.5837 52.457 79.4699 52.2099C79.2196 51.6107 78.8827 51.0514 78.4699 50.5499C77.7399 49.4299 77.34 48.1399 76.62 47.0199C76.5268 46.8983 76.4755 46.7498 76.4737 46.5966C76.4719 46.4434 76.5197 46.2937 76.6099 46.1699V46.1699Z" fill="#DEB56C"/>
<path d="M126.77 150.29V149.59C126.665 149.476 126.587 149.339 126.544 149.189C126.5 149.04 126.492 148.883 126.52 148.73C126.695 147.431 126.736 146.117 126.64 144.81C126.64 142.71 126.77 140.6 126.55 138.51C126.52 138.361 126.52 138.208 126.55 138.06C127.01 137.47 126.79 136.77 126.87 136.12C126.95 135.47 126.62 134.94 127.07 134.42C127.52 134.61 127.54 135.04 127.59 135.42C127.82 137.23 128.03 139.05 128.09 140.89C128.23 146.04 127.92 151.18 127.77 156.31C127.68 159.46 127.67 162.61 127.58 165.76C127.58 166.34 127.79 167.07 126.95 167.35C126.825 166.728 126.795 166.091 126.86 165.46C126.86 160.83 126.86 156.2 126.86 151.58C126.939 151.149 126.908 150.706 126.77 150.29V150.29Z" fill="#C6E6DE"/>
<path d="M76.6104 46.1701L78.7404 50.4701C79.1061 51.1944 79.3944 51.9553 79.6004 52.7401C79.6004 52.9601 79.6004 53.2001 79.7104 53.4101C79.8204 53.6201 79.6404 54.0601 79.8704 54.3401C80.1004 54.6201 80.1004 54.9501 79.9704 55.2801C77.8204 52.8101 77.0404 49.6901 75.8604 46.7401C74.5759 43.2527 72.6644 40.0297 70.2204 37.2301C70.0672 37.0208 69.8691 36.8485 69.6407 36.7257C69.4124 36.6028 69.1594 36.5326 68.9004 36.5201C69.0004 35.9601 69.4604 36.1301 69.8104 36.0801C70.2604 36.1901 70.6904 36.3101 70.8104 36.8301C72.8604 39.9301 74.8104 42.9801 76.6104 46.1701Z" fill="#FEA046"/>
<path d="M83.0896 42.0699C83.8196 43.3499 84.8796 44.5399 84.2796 46.2099H84.0696C83.6596 44.9199 83.2496 43.6199 82.8296 42.3299C82.7596 42.0799 82.8696 42.0199 83.0896 42.0699Z" fill="#FE7712"/>
<path d="M91.4901 58.16C92.4901 57.55 92.6101 56.5 92.8901 55.53C92.9901 55.2 92.8901 54.81 93.1601 54.53C93.2501 54.86 93.05 55.26 93.42 55.53C93.15 56.22 92.9301 56.94 92.6001 57.6C92.2701 58.26 92.0001 59.08 90.9601 58.86C90.9488 58.7793 90.9535 58.697 90.9741 58.6181C90.9946 58.5392 91.0306 58.4651 91.0798 58.4001C91.129 58.335 91.1906 58.2804 91.261 58.2392C91.3314 58.198 91.4092 58.1711 91.4901 58.16V58.16Z" fill="#FCE7E0"/>
<path d="M89.4902 47.3899L91.4902 47.6199C90.7402 48.4599 90.1202 48.0199 89.4902 47.3899Z" fill="#FEA051"/>
<path d="M91.4902 47.63C91.4902 47.42 91.7002 47.36 91.8902 47.32C92.0802 47.28 92.2302 46.71 92.6702 46.88C92.7402 47.05 92.8102 47.23 92.8902 47.4L91.4902 47.63Z" fill="#FEA051"/>
<path d="M125.81 107.35L123.17 105.44C123.079 105.368 123.007 105.276 122.96 105.17C122.574 103.608 121.792 102.172 120.69 101C120.347 100.546 119.885 100.197 119.355 99.9901C118.826 99.7835 118.249 99.728 117.69 99.8299C117.579 99.8071 117.478 99.7513 117.4 99.67C117.031 98.9423 116.537 98.2855 115.94 97.73C115.913 97.6774 115.898 97.6191 115.898 97.56C115.898 97.5008 115.913 97.4425 115.94 97.39C117.77 95.52 117.28 93.49 116.42 91.39C114.987 88.1314 113.316 84.9829 111.42 81.97C109.88 79.35 108.08 76.9 106.34 74.42C104.77 72.17 103.21 72.42 100.93 73.11C100.11 73.35 100.02 74.29 99.3998 74.73C99.2937 74.674 99.196 74.6033 99.1098 74.52C96.4298 70.8 93.4198 67.33 90.4198 63.87C90.347 63.7311 90.2932 63.5831 90.2598 63.43C94.9798 63.74 99.6998 64.07 104.42 64.37C105.89 64.46 107.37 64.54 108.84 64.58C112.66 64.7 116.49 65.06 120.32 64.87C121.92 64.79 123.49 65.13 125.09 65.14C130.67 65.14 136.23 64.65 141.79 64.33C146.675 64.1233 151.545 63.6559 156.38 62.93C159.71 62.37 163.05 61.93 166.38 61.36L167.09 61.25C167.85 61.16 168.19 61.36 167.71 62.14C167.38 62.69 167.09 63.26 166.71 63.81C166.215 64.5858 165.99 65.5032 166.07 66.42C166.135 66.9403 165.994 67.4657 165.676 67.8828C165.358 68.2999 164.889 68.5754 164.37 68.65C164.05 67.8 164.76 67.26 165 66.58C165.24 65.9 165.67 65.49 165.13 64.93C164.87 64.6486 164.531 64.4537 164.157 64.3714C163.783 64.2892 163.393 64.3236 163.04 64.47C162.65 64.5794 162.304 64.8043 162.045 65.1149C161.786 65.4255 161.627 65.8073 161.59 66.21C161.545 66.6043 161.616 67.0033 161.793 67.3583C161.971 67.7133 162.247 68.0092 162.59 68.21C163.05 68.55 163.67 68.49 164.11 68.87C160.236 75.2766 156.083 81.4966 151.65 87.53C151.2 88.14 150.72 88.71 150.26 89.3C149.77 89.17 149.64 88.71 149.38 88.37C148.917 87.7379 148.259 87.2753 147.507 87.0531C146.756 86.8309 145.952 86.8614 145.22 87.14C144.806 87.2936 144.433 87.5399 144.13 87.86C143.783 88.323 143.536 88.853 143.405 89.4164C143.273 89.9798 143.26 90.5643 143.367 91.133C143.473 91.7017 143.696 92.2421 144.022 92.7201C144.348 93.1981 144.769 93.6033 145.26 93.91C145.531 93.9792 145.773 94.1334 145.95 94.35C143.287 97.2668 140.219 99.7859 136.84 101.83C133.748 103.947 130.423 105.702 126.93 107.06C126.63 107.17 126.32 107.23 126.02 107.31C126.009 107.326 125.994 107.341 125.978 107.352C125.961 107.363 125.943 107.37 125.923 107.374C125.904 107.378 125.883 107.377 125.864 107.373C125.845 107.369 125.826 107.361 125.81 107.35V107.35Z" fill="#F2A7C8"/>
<path d="M125.81 107.35H126.06C128.433 108.813 130.917 110.087 133.49 111.16C133.39 112.06 132.59 112.21 131.98 112.48C129.951 113.294 127.802 113.767 125.62 113.88C124.552 113.95 123.489 114.09 122.44 114.3C121.438 113.752 120.551 113.015 119.83 112.13C118.934 111.075 118.121 109.951 117.4 108.77C117.29 108.26 117.27 108.08 118 108.17C120.632 108.484 123.3 108.204 125.81 107.35V107.35Z" fill="#B6658A"/>
<path d="M122.49 114.32C122.26 113.63 122.79 113.86 123.09 113.83C125.423 113.688 127.741 113.353 130.02 112.83C131.318 112.588 132.531 112.012 133.54 111.16H134C135.52 111.76 137 112.39 137.64 114.09C137.758 114.295 137.821 114.528 137.821 114.765C137.821 115.002 137.758 115.235 137.64 115.44C133.98 117.07 130.23 116.88 126.47 115.88C125.591 115.721 124.739 115.439 123.94 115.04C123.445 114.823 122.964 114.576 122.5 114.3L122.49 114.32Z" fill="#AD426E"/>
<path d="M145.99 94.4099C145.572 94.3784 145.165 94.2644 144.792 94.0746C144.418 93.8847 144.086 93.6227 143.815 93.3038C143.543 92.9849 143.338 92.6153 143.21 92.2164C143.082 91.8175 143.034 91.3973 143.07 90.9799C143.07 89.3999 143.07 87.8999 144.75 87.0799C145.257 86.8151 145.815 86.6642 146.386 86.6379C146.957 86.6117 147.527 86.7106 148.056 86.9278C148.585 87.1451 149.059 87.4753 149.447 87.8954C149.835 88.3156 150.126 88.8154 150.3 89.3599V89.5899C150.029 90.3636 149.56 91.053 148.94 91.5899C148.138 92.6039 147.229 93.5292 146.23 94.3499L145.99 94.4099Z" fill="#F8CEE1"/>
<path d="M91.49 58.16L90.96 58.84L90.72 59.11C89.55 60.11 88.22 59.41 86.96 59.52C87.79 59.41 88.57 59.29 88.23 58.09C88.16 57.87 88.5 57.54 88.65 57.27C89.4625 56.0783 89.9675 54.7042 90.12 53.27C90.12 52.64 90.26 51.78 91.12 51.73C91.98 51.68 92.22 52.34 92.47 53.02C92.827 54.2997 92.6653 55.6686 92.02 56.83L91.49 58.16Z" fill="#FE6614"/>
<path d="M164.15 68.93C163.538 68.9844 162.925 68.829 162.412 68.4891C161.9 68.1493 161.518 67.6453 161.33 67.0599C161.186 66.4301 161.298 65.769 161.642 65.2217C161.985 64.6743 162.531 64.2853 163.16 64.1399C163.578 64.0098 164.023 64.0019 164.445 64.117C164.867 64.2322 165.247 64.4657 165.54 64.79C166.2 65.43 165.63 66.0399 165.36 66.6299C165.09 67.2199 164.74 68 164.42 68.69L164.15 68.93Z" fill="#F8CEE1"/>
<path d="M82.6099 60.0899L82.8199 59.8299C83.2971 59.7511 83.7868 59.8023 84.2373 59.9783C84.6878 60.1543 85.0825 60.4485 85.3799 60.8299C85.5499 61.0399 85.7499 61.2899 86.0799 61.1199C87.8199 60.2199 88.6199 61.4899 89.4799 62.5999C89.6072 62.8021 89.7207 63.0126 89.8199 63.2299C87.8732 63.3678 85.9225 63.0244 84.1399 62.2299C83.1999 61.8199 82.4899 61.2499 82.6099 60.0899Z" fill="#B7658B"/>
<path d="M146.2 94.3801C147.38 92.6301 149.01 91.2701 150.27 89.5901C150.414 90.2967 150.367 91.0288 150.133 91.7109C149.899 92.393 149.487 93.0003 148.94 93.4701C148.578 93.8135 148.145 94.0731 147.672 94.2304C147.198 94.3876 146.696 94.4387 146.2 94.3801V94.3801Z" fill="#F2A7C8"/>
<path d="M179.23 57.9899C179.197 58.1236 179.127 58.2452 179.028 58.3408C178.929 58.4363 178.805 58.5019 178.67 58.5299C178.43 58.5299 178.37 58.3299 178.38 58.1199C178.375 58.0618 178.383 58.0032 178.404 57.9486C178.424 57.894 178.457 57.8447 178.499 57.8044C178.541 57.7641 178.592 57.7338 178.648 57.7157C178.703 57.6976 178.762 57.6922 178.82 57.6999C179.03 57.6899 179.21 57.7299 179.23 57.9899Z" fill="#EE95BA"/>
<path d="M73.2301 59.3599C72.9844 59.489 72.7156 59.5678 72.4391 59.5919C72.1627 59.6159 71.8843 59.5846 71.6201 59.4999C67.9801 58.6899 65.5301 56.3299 63.6201 53.3599C62.4424 51.6529 61.4974 49.7966 60.8101 47.8399C60.8101 47.7199 60.68 47.6199 60.67 47.5099C60.59 46.6999 60.2001 45.6999 61.2301 45.2999C62.2601 44.8999 62.4501 45.8999 62.8101 46.5399C62.9201 46.7399 63.0601 46.9399 63.1801 47.1399C64.0601 47.7999 63.97 49.0099 64.67 49.7599L65.35 51.1899C66.0546 52.4691 67.0308 53.5784 68.2101 54.4399C68.6233 54.7436 69.0972 54.9545 69.5995 55.058C70.1017 55.1616 70.6204 55.1554 71.1201 55.0399H71.3401C71.9601 55.1599 72.3401 55.6899 72.7901 56.0399C73.7101 56.9999 73.1801 58.2299 73.2301 59.3599Z" fill="#DDB46C"/>
<path d="M66.7998 22.4199C67.5698 22.8799 67.2398 23.6399 67.2398 24.2699C67.2398 27.0499 67.2398 27.0999 69.8498 28.1199C70.3399 28.286 70.8122 28.5004 71.2598 28.7599C71.7895 29.0512 72.194 29.5265 72.3967 30.096C72.5995 30.6655 72.5863 31.2895 72.3598 31.8499C72.1083 32.4693 71.6237 32.9652 71.0102 33.2307C70.3968 33.4963 69.7035 33.5104 69.0798 33.2699C66.9691 32.6059 65.1148 31.3068 63.7698 29.5499C63.5329 29.3055 63.3562 29.0092 63.2538 28.6846C63.1514 28.36 63.1261 28.016 63.1798 27.6799C63.1926 27.499 63.2417 27.3226 63.3241 27.1611C63.4066 26.9996 63.5208 26.8563 63.6598 26.7399C64.9565 25.4993 66.02 24.0362 66.7998 22.4199V22.4199Z" fill="#FE800A"/>
<path d="M78.2901 18.3099C78.2901 18.6699 78.3801 19.0899 78.1101 19.3099C77.1101 20.3099 77.5901 21.2399 77.9701 22.3099C78.8201 24.7199 77.5301 26.5899 75.2301 26.4399C74.7882 26.4303 74.3586 26.2929 73.9931 26.0445C73.6275 25.7961 73.3417 25.4472 73.17 25.0399C72.3359 23.5814 71.9629 21.9045 72.1001 20.2299C73.982 19.4326 75.9047 18.7349 77.8601 18.1399C77.94 18.1324 78.0207 18.1439 78.0954 18.1734C78.1702 18.203 78.2368 18.2497 78.2901 18.3099Z" fill="#FE800A"/>
<path d="M86.6802 28.0001C87.7811 28.6871 88.8336 29.4489 89.8302 30.2801C90.4756 31.2305 91.2971 32.0486 92.2502 32.6901L94.3702 35.3501C95.2242 36.0266 95.9433 36.8577 96.4902 37.8001L96.5602 38.7001C96.9802 40.5401 95.6802 43.2001 94.1802 43.5901C94.0911 43.5422 94.0203 43.4663 93.9787 43.3741C93.9371 43.2819 93.9271 43.1786 93.9502 43.0801C94.3302 41.0801 93.4602 39.4701 92.6902 37.8101C91.0099 34.1131 88.4191 30.903 85.1602 28.4801C84.7202 28.1501 84.2102 27.8601 84.1602 27.2201C84.1683 27.1301 84.2045 27.045 84.2638 26.9768C84.323 26.9086 84.4022 26.8607 84.4902 26.8401C85.3049 27.0396 86.0574 27.4382 86.6802 28.0001V28.0001Z" fill="#EDD6A5"/>
<path d="M58.62 42.33C58.5085 42.2862 58.4093 42.216 58.3309 42.1254C58.2525 42.0349 58.1973 41.9266 58.17 41.81C58.17 40.93 57.58 40.21 57.54 39.34C57.3254 38.9707 57.2245 38.5463 57.25 38.12C57.52 36.58 57.39 34.98 57.9 33.47C57.9192 33.3457 57.9634 33.2267 58.03 33.12C58.1499 32.976 58.305 32.8654 58.4801 32.7989C58.6553 32.7323 58.8447 32.712 59.03 32.74C59.2398 32.7779 59.4385 32.8622 59.6115 32.9867C59.7845 33.1113 59.9275 33.273 60.03 33.46C60.4744 34.4011 60.7293 35.4205 60.78 36.46C60.7955 37.1791 61.0292 37.8766 61.45 38.46C61.837 38.8524 62.0717 39.3698 62.1121 39.9195C62.1524 40.4692 61.9956 41.0153 61.67 41.46C61.3844 41.8766 60.9631 42.1812 60.4779 42.3216C59.9928 42.462 59.4739 42.4297 59.01 42.23C58.943 42.2013 58.8685 42.1955 58.798 42.2136C58.7274 42.2317 58.6648 42.2726 58.62 42.33Z" fill="#FE800A"/>
<path d="M86.6699 25.6C86.6976 24.744 86.9519 23.9107 87.407 23.1851C87.862 22.4595 88.5014 21.8677 89.2599 21.47C89.6037 21.2617 89.9979 21.1516 90.3999 21.1516C90.8018 21.1516 91.1961 21.2617 91.5399 21.47C91.8402 21.6967 92.0643 22.0096 92.1823 22.3669C92.3002 22.7243 92.3063 23.1091 92.1999 23.47C91.9537 24.7212 91.4682 25.913 90.7699 26.98C90.5428 27.4341 90.1552 27.7878 89.6823 27.9726C89.2093 28.1573 88.6847 28.16 88.2099 27.98C87.7171 27.8234 87.294 27.5004 87.013 27.0662C86.7321 26.632 86.6108 26.1137 86.6699 25.6Z" fill="#FE800A"/>
<path d="M60.04 33.4599C59.62 33.4599 59.43 33.0999 59.11 32.9399C58.5864 32.561 58.2283 31.9953 58.11 31.3599C57.9725 30.1398 58.2972 28.9125 59.02 27.9199C60.17 26.8599 60.75 25.3799 61.76 24.2199C62.4717 23.1534 63.5744 22.4098 64.83 22.1499C64.8695 22.2183 64.8903 22.2959 64.8903 22.3749C64.8903 22.4539 64.8695 22.5315 64.83 22.5999C63.7482 23.9149 63.1609 25.5671 63.17 27.2699C63.17 27.4299 63.04 27.5499 62.94 27.6799C62.9677 28.0792 62.8465 28.4746 62.6 28.7899C61.8254 29.7972 61.3536 31.0043 61.24 32.2699C61.16 32.9299 60.85 33.4799 60.04 33.4599Z" fill="#FED671"/>
<path d="M71.0801 15C73.7646 13.3975 76.9686 12.9059 80.0101 13.63C86.0508 14.8694 91.4793 18.154 95.3801 22.93C96.6832 24.1801 97.5877 25.7874 97.9801 27.55L96.2301 25.15C94.6023 23.1197 92.6653 21.3582 90.4901 19.93C88.3201 18.39 86.3401 16.56 83.9101 15.41C82.7299 14.8195 81.4297 14.5081 80.1101 14.5C77.091 14.3727 74.0667 14.5402 71.0801 15V15Z" fill="#FE720F"/>
<path d="M78.2905 18.31C76.2005 18.87 74.2905 20.05 72.1005 20.31H72.0405C71.8888 19.8842 71.88 19.4207 72.0153 18.9894C72.1507 18.5582 72.4228 18.1828 72.7905 17.92L73.2505 17.2C74.3905 16.87 75.4405 16.27 76.6105 16L77.1105 16.23C78.1105 16.23 78.3705 16.54 78.3005 17.67L78.2905 18.31Z" fill="#FEB424"/>
<path d="M92.6896 46.9301C92.4396 47.0901 92.3096 47.4801 91.9096 47.3701C91.9645 45.0651 91.5068 42.7767 90.5696 40.6701C88.9796 37.1701 87.5696 33.5301 84.9996 30.5801C84.2896 29.7801 83.5596 29.0001 82.8496 28.2001C83.4896 27.8601 83.7896 28.4301 84.1496 28.7501C85.6461 30.1409 86.9873 31.6899 88.1496 33.3701C89.6062 35.273 90.735 37.4056 91.4896 39.6801C91.8296 41.2201 92.1196 42.7701 92.4896 44.3201C92.5347 44.7624 92.615 45.2005 92.7296 45.6301L92.6896 46.9301Z" fill="#FEA046"/>
<path d="M62.9404 27.6801C62.8135 26.6727 62.9208 25.6497 63.2538 24.6906C63.5868 23.7314 64.1366 22.8621 64.8604 22.1501H66.3104C66.3221 22.1315 66.3383 22.1162 66.3576 22.1055C66.3768 22.0949 66.3984 22.0894 66.4204 22.0894C66.4424 22.0894 66.464 22.0949 66.4832 22.1055C66.5025 22.1162 66.5187 22.1315 66.5304 22.1501L66.8004 22.4001C66.6137 23.5324 66.083 24.5798 65.2804 25.4001C64.6104 26.1701 63.8804 26.9001 63.1804 27.6401L62.9404 27.6801Z" fill="#FEB424"/>
<path d="M78.3004 17.59C78.2808 17.2546 78.155 16.9342 77.941 16.6753C77.727 16.4163 77.436 16.2323 77.1104 16.15C78.2605 15.412 79.594 15.0102 80.9604 14.99C81.2214 15.003 81.4711 15.1008 81.6714 15.2687C81.8718 15.4365 82.0119 15.6652 82.0704 15.92C82.2504 16.41 81.9304 16.75 81.6004 17.05C80.8004 17.78 78.9504 18.08 78.3004 17.59Z" fill="#FED670"/>
<path d="M98.6904 29.1001C99.5104 30.1601 99.5304 31.4601 99.7604 32.6901C100.36 35.9801 100.64 39.2701 99.4604 42.5101C99.3304 42.8801 99.2704 43.2901 98.9004 43.5101C99.2611 41.7175 99.5082 39.9039 99.6404 38.0801C99.6033 35.0638 99.2852 32.0574 98.6904 29.1001V29.1001Z" fill="#FE7511"/>
<path d="M59.0498 27.9301C58.5927 29.0778 58.3684 30.3049 58.3898 31.5401C58.4745 31.8179 58.4933 32.1117 58.4447 32.3981C58.3961 32.6845 58.2814 32.9557 58.1098 33.1901C57.9898 33.3701 57.8998 33.5801 57.6198 33.5501C57.1498 33.1101 57.3698 32.5501 57.4498 32.0901C58.0918 27.6504 60.0976 23.5199 63.1898 20.2701C63.4198 20.1901 63.4798 20.2701 63.4098 20.4901C61.8547 22.3506 60.5409 24.4001 59.4998 26.5901C59.2617 27.0022 59.1087 27.4578 59.0498 27.9301Z" fill="#FEF4E8"/>
<path d="M72.7899 17.8401C72.4561 18.608 72.2047 19.4091 72.0399 20.2301C71.4117 20.5069 70.7145 20.5871 70.0399 20.4601C69.8575 20.4738 69.6757 20.4262 69.5235 20.3247C69.3713 20.2232 69.2574 20.0738 69.1999 19.9001C69.1532 19.7218 69.1695 19.5329 69.2461 19.3653C69.3226 19.1977 69.4546 19.0616 69.6199 18.9801C70.5385 18.291 71.6429 17.8939 72.7899 17.8401V17.8401Z" fill="#FED56F"/>
<path d="M94.1303 43.53C96.1303 42.53 96.3203 40.6 96.5903 38.7C96.9103 38.57 97.0603 38.7 97.0003 39.01C96.7918 41.1512 95.8853 43.1646 94.4203 44.74C94.1946 44.9681 93.9249 45.1479 93.6274 45.2683C93.3299 45.3886 93.0111 45.447 92.6903 45.44C92.6295 45.3798 92.5855 45.3048 92.5627 45.2223C92.5398 45.1398 92.539 45.0529 92.5603 44.97C92.6826 44.6189 92.8901 44.3037 93.164 44.0524C93.438 43.8011 93.77 43.6216 94.1303 43.53Z" fill="#EF9D28"/>
<path d="M70.8304 36.8301L69.8904 36.2901C69.7404 36.0101 69.1405 36.4701 69.1905 35.8701C69.4544 35.7325 69.7477 35.6606 70.0454 35.6606C70.3431 35.6606 70.6365 35.7325 70.9005 35.8701C72.6478 36.5336 74.258 37.5133 75.6505 38.7601C74.8505 39.0201 74.4405 38.3001 73.8505 38.0301C72.8705 37.5301 72.0504 36.6701 70.8304 36.8301Z" fill="#FDF9F1"/>
<path d="M71.0796 55.04C70.2796 55.83 69.5496 55.48 68.7296 55.04C67.1613 54.2319 65.9443 52.8761 65.3096 51.23C65.7796 51.76 66.3096 52.23 66.6996 52.81C67.5196 53.91 68.4096 54.81 69.9296 54.6C70.1431 54.5637 70.3624 54.5854 70.5647 54.6628C70.767 54.7402 70.9448 54.8704 71.0796 55.04V55.04Z" fill="#E69223"/>
<path d="M66.0801 44C66.5478 44.2132 66.9667 44.5203 67.3107 44.9022C67.6548 45.2841 67.9167 45.7326 68.0801 46.22C68.3801 46.82 68.6601 47.44 68.9501 48.06C69.0201 48.3 68.9501 48.36 68.6901 48.3L66.0801 44Z" fill="#FEF2E3"/>
<path d="M86.6796 28C85.9075 27.7913 85.1861 27.4272 84.5596 26.93C83.7496 26.67 82.8596 26.53 82.5596 25.53C84.1948 25.8057 85.6659 26.6877 86.6796 28V28Z" fill="#EF9F2A"/>
<path d="M78.4901 26.9299C78.5701 27.1699 78.6501 27.4199 78.7201 27.6599C77.9001 27.8099 77.5301 28.4999 77.0801 29.0699C76.8201 29.4693 76.4794 29.8099 76.0801 30.0699C76.2247 29.401 76.5159 28.7724 76.9326 28.2294C77.3493 27.6865 77.8813 27.2426 78.4901 26.9299Z" fill="#FE7A15"/>
<path d="M76.61 15.9301C75.61 16.5601 74.56 17.2801 73.25 17.1301C73.6904 16.6996 74.2187 16.3695 74.7987 16.1623C75.3786 15.9552 75.9965 15.876 76.61 15.9301V15.9301Z" fill="#FE870F"/>
<path d="M82.37 46.61C81.09 45.96 81.07 44.44 80.21 43.5C81.276 44.2477 82.0416 45.35 82.37 46.61Z" fill="#F0A230"/>
<path d="M64.6297 49.7599C63.939 49.0121 63.4292 48.1158 63.1396 47.1399C63.1396 46.9499 63.1396 46.7499 63.3896 46.6499C63.9651 47.6143 64.3837 48.6641 64.6297 49.7599V49.7599Z" fill="#F9EDD6"/>
<path d="M82.5698 25.54C83.0898 26.21 83.9898 26.34 84.5698 26.94L84.2898 27.22C83.1898 27.34 82.5798 26.52 81.8498 25.94C81.8348 25.8541 81.8534 25.7657 81.9018 25.6931C81.9502 25.6205 82.0247 25.5693 82.1098 25.55L82.5698 25.54Z" fill="#ECCF98"/>
<path d="M66.5401 37.27C65.6076 38.2403 64.8648 39.3766 64.3501 40.62C64.3342 40.6408 64.3138 40.6576 64.2904 40.6691C64.2669 40.6807 64.2412 40.6867 64.2151 40.6867C64.189 40.6867 64.1632 40.6807 64.1398 40.6691C64.1164 40.6576 64.0959 40.6408 64.0801 40.62C64.1954 39.9067 64.4785 39.2309 64.9062 38.6485C65.3339 38.066 65.8939 37.5936 66.5401 37.27V37.27Z" fill="#FEE0BA"/>
<path d="M82.1003 25.55L81.8903 25.77C81.5208 26.1343 81.1229 26.4687 80.7004 26.77H80.2203C80.1503 26.56 79.6003 26.53 79.8603 26.32C80.4903 25.74 81.0903 24.93 82.1003 25.55Z" fill="#FDF5E8"/>
<path d="M70.5801 51.1899C71.4001 51.8899 72.1801 52.6099 71.8101 53.8599C71.2664 53.0378 70.8516 52.1374 70.5801 51.1899V51.1899Z" fill="#FE7E1A"/>
<path d="M92.2501 32.69C91.6907 32.4976 91.1822 32.1807 90.763 31.7632C90.3438 31.3458 90.0249 30.8386 89.8301 30.28C90.7217 30.9933 91.5331 31.8014 92.2501 32.69V32.69Z" fill="#FCF5E8"/>
<path d="M96.4898 37.8001L94.3398 35.3601C94.8637 35.5709 95.3309 35.9014 95.7043 36.3251C96.0776 36.7488 96.3466 37.2539 96.4898 37.8001Z" fill="#EF9D28"/>
<path d="M72.7498 55.99C72.4478 55.9451 72.1601 55.8316 71.9088 55.6583C71.6575 55.4849 71.4491 55.2563 71.2998 54.99C71.4698 54.76 71.6398 54.52 71.8198 54.29C72.3498 54.76 72.4098 55.45 72.7498 55.99Z" fill="#FCF1E2"/>
<path d="M63.4202 20.4801L63.2002 20.2601C63.9902 19.5901 64.5502 18.6201 65.6302 18.3101L63.4202 20.4801Z" fill="#FEDBAA"/>
<path d="M69.1897 35.8701L69.8897 36.2901C69.5597 36.3801 69.1697 36.2201 68.8897 36.5201L68.4297 36.7801L67.5097 36.8301C67.489 36.8535 67.4636 36.8723 67.4352 36.8851C67.4067 36.898 67.3759 36.9046 67.3447 36.9046C67.3135 36.9046 67.2826 36.898 67.2542 36.8851C67.2257 36.8723 67.2003 36.8535 67.1797 36.8301C67.7679 36.3613 68.4553 36.0329 69.1897 35.8701V35.8701Z" fill="#FEEBD6"/>
<path d="M83.0897 42.0699L82.8297 42.3299C82.3072 41.683 81.9043 40.9482 81.6396 40.1599C82.2847 40.6558 82.7854 41.3153 83.0897 42.0699Z" fill="#FE8B23"/>
<path d="M64.1396 41.6001C64.5512 41.8215 64.9121 42.1261 65.1996 42.4945C65.4871 42.8629 65.6949 43.2871 65.8097 43.7401C65.1283 43.1335 64.5625 42.4085 64.1396 41.6001V41.6001Z" fill="#FE8B21"/>
<path d="M68.71 48.3001L68.97 48.0601C69.3257 48.4844 69.5636 48.9948 69.66 49.5401C69.2537 49.2038 68.9289 48.7799 68.71 48.3001Z" fill="#FED29C"/>
<path d="M75.6198 31.54L75.4098 32.93C75.0298 32.43 74.9998 31.93 75.6198 31.54Z" fill="#FE851E"/>
<path d="M92.7301 44.98V45.44C92.7197 45.5029 92.7197 45.5671 92.7301 45.63C92.1701 45.4 92.2701 44.93 92.2901 44.49C92.6201 44.41 92.7701 44.6 92.7301 44.98Z" fill="#F6CF9C"/>
<path d="M66.4895 22.17H66.2695C66.2695 21.91 66.3495 21.68 66.6795 21.75C66.7595 21.75 66.8095 21.9 66.8795 21.98L66.4895 22.17Z" fill="#FECC60"/>
<path d="M64.0796 40.6399H64.3496C64.3496 40.9099 64.4296 41.1799 64.1396 41.3599C64.0596 41.1099 63.7496 40.9299 64.0796 40.6399Z" fill="#FEC785"/>
<path d="M75.9004 30.5701C76.3304 31.0201 76.0704 31.2901 75.6504 31.5101L75.9004 30.5701Z" fill="#FEBC72"/>
<path d="M67.1895 36.79H67.5195C67.2527 37.0576 66.8968 37.2178 66.5195 37.24C66.5711 37.105 66.6632 36.9893 66.7831 36.9087C66.9031 36.8281 67.0451 36.7867 67.1895 36.79V36.79Z" fill="#FED3A2"/>
<path d="M124.83 203.8V201.91C125.121 200.313 125.268 198.693 125.27 197.07C125.52 193.58 125.63 190.07 125.81 186.58C126.03 182.32 126.27 178.07 126.5 173.82C126.5 173.67 126.5 173.52 126.5 173.37C126.89 171.37 126.69 169.37 126.96 167.37C127.33 167.06 127.19 166.63 127.19 166.25C127.19 164.18 127.1 162.1 127.19 160.03C127.39 156.89 127.19 153.74 127.46 150.61C127.74 147.03 127.63 143.45 127.59 139.87C127.617 138.056 127.399 136.246 126.94 134.49C126.94 134.18 126.94 133.86 126.94 133.54C127.01 132.24 126.77 130.91 127.42 129.66C127.81 128.91 128.14 128.85 128.75 129.44C129.75 130.44 129.75 131.71 129.75 132.9C129.93 136.4 129.9 139.9 130.04 143.42C130.36 151.49 130.32 159.56 130.24 167.63C130.17 174.68 129.63 181.72 129.49 188.78C129.41 193.03 128.97 197.27 128.56 201.51C128.2 205.23 127.88 208.95 127.63 212.67C127.55 213.82 126.71 214.59 126.28 215.56C126.14 215.88 125.84 215.82 125.59 215.56C125.005 214.987 124.563 214.285 124.299 213.511C124.035 212.736 123.957 211.91 124.07 211.1C124.357 209.335 124.501 207.549 124.5 205.76V205.76C124.93 205.12 124.54 204.42 124.83 203.8Z" fill="#9DD2C4"/>
<path d="M100.82 44.93C100.711 44.7711 100.639 44.5893 100.61 44.3985C100.581 44.2077 100.596 44.0128 100.654 43.8286C100.712 43.6445 100.811 43.476 100.944 43.3359C101.076 43.1958 101.239 43.0877 101.42 43.02C101.409 43.7012 101.2 44.3646 100.82 44.93V44.93Z" fill="#D09C4F"/>
<path d="M99.4004 74.7301C100.22 72.2701 103.81 71.4501 105.76 73.2701C107.21 74.6201 108.07 76.4101 109.18 78.0001C112.196 82.209 114.742 86.7361 116.77 91.5001C117.418 92.6939 117.647 94.0707 117.42 95.4101C117.342 95.8418 117.172 96.2518 116.922 96.6123C116.672 96.9728 116.347 97.2755 115.97 97.5001C115.52 97.4301 115.33 97.0601 115.11 96.7401C110.86 90.6101 106.42 84.6401 101.94 78.7401C100.932 77.6121 100.084 76.3501 99.4204 74.9901C99.4068 74.9041 99.4002 74.8171 99.4004 74.7301V74.7301Z" fill="#F8CEE1"/>
<path d="M99.4199 74.9299C105.12 82.3199 110.7 89.7799 115.97 97.4799C115.975 97.5565 115.975 97.6333 115.97 97.7099C115.013 98.0937 113.952 98.133 112.968 97.8211C111.985 97.5092 111.141 96.8655 110.58 95.9999C107.182 91.1273 104.079 86.0548 101.29 80.8099C100.26 79.0031 99.6232 76.9995 99.4199 74.9299V74.9299Z" fill="#DCC5D3"/>
<path d="M123.16 105.19V105.44C122.81 106.64 122.28 107.69 120.86 107.82C120.183 107.888 119.501 107.746 118.907 107.413C118.313 107.08 117.836 106.573 117.54 105.96C116.985 105.142 116.547 104.25 116.24 103.31C115.981 102.662 115.957 101.944 116.17 101.279C116.384 100.615 116.822 100.046 117.41 99.6699H117.64C117.795 99.7131 117.937 99.7958 118.05 99.9099C119.584 101.826 121.295 103.594 123.16 105.19V105.19Z" fill="#DCC5D3"/>
<path d="M134.92 236.69H133.02C128.43 236.69 123.85 236.4 119.27 236.4C114.575 236.474 109.885 236.076 105.27 235.21C103.902 235.021 102.585 234.564 101.395 233.866C100.204 233.168 99.1623 232.241 98.3299 231.14C96.0199 227.86 97.5899 224.76 100.49 223.14C100.902 222.985 101.349 222.95 101.78 223.04C102.55 223.13 102.87 223.5 102.37 224.25C101.592 225.2 100.921 226.233 100.37 227.33C100.21 227.728 100.21 228.172 100.37 228.57C100.45 228.72 100.54 228.87 100.63 229.02C100.909 229.64 101.324 230.19 101.843 230.629C102.362 231.068 102.972 231.386 103.63 231.56C105.651 232.291 107.765 232.736 109.91 232.88C115.4 233.49 120.91 233.19 126.4 233.4C129.751 233.423 133.095 233.714 136.4 234.27C137.2 234.43 137.88 234.82 138.76 235.09C137.59 236.18 136.2 236.29 134.92 236.69Z" fill="#9ED2C4"/>
<path d="M129.66 231.69H138.49C135.578 232.291 132.573 232.291 129.66 231.69Z" fill="#A4D5C8"/>
<path d="M122.49 114.31C123.042 114.38 123.552 114.642 123.93 115.05C123.646 115.066 123.363 115.006 123.11 114.876C122.857 114.746 122.643 114.55 122.49 114.31V114.31Z" fill="#B6658A"/>
<path d="M57.4196 38.2199C57.3696 38.6499 57.7596 38.8599 57.8896 39.2199C57.4996 39.7399 58.1396 40.3899 57.6596 40.8899C56.9314 39.9416 56.4969 38.8008 56.4098 37.6083C56.3227 36.4158 56.5869 35.224 57.1696 34.1799C57.8296 35.4799 57.4896 36.8599 57.4196 38.2199Z" fill="#FE730F"/>
<path d="M57.4199 38.2199C57.3399 36.8699 57.2599 35.5099 57.1699 34.1599L57.6299 33.5399L58.1199 33.1799C57.7899 34.8499 57.9599 36.5799 57.4199 38.2199Z" fill="#FEAA2E"/>
<path d="M57.6598 40.87C57.7398 40.32 57.4298 39.71 57.8898 39.2C57.6498 40.11 58.7398 40.87 58.1598 41.81L57.6598 40.87Z" fill="#FE5D07"/>
<path d="M92.7297 44.98L92.2197 44.49C91.757 42.9265 91.4225 41.3278 91.2197 39.71C90.7225 37.3365 89.5526 35.1564 87.8497 33.43C86.6558 31.79 85.3171 30.2605 83.8497 28.86C83.5297 28.58 83.2897 28.16 82.7897 28.15L80.6396 26.73C80.7196 26.02 81.2497 25.87 81.8297 25.73C82.5792 26.287 83.3794 26.7725 84.2197 27.18C85.6797 28.69 87.4697 29.84 88.8697 31.43C91.3304 34.1709 93.1691 37.4117 94.2597 40.93C94.4818 41.783 94.4364 42.6836 94.1297 43.51L92.7297 44.98Z" fill="#DDB46C"/>
<path d="M79.7002 52.22C79.4102 52.37 79.5502 52.66 79.4802 52.88C79.1451 52.1065 78.8969 51.2982 78.7402 50.47C79.1858 50.9751 79.5137 51.5728 79.7002 52.22V52.22Z" fill="#F4CD9C"/>
<path d="M124.83 203.8C124.77 204.45 125.06 205.14 124.6 205.74V204.3C124.6 204.14 124.6 203.99 124.6 203.83L124.83 203.8Z" fill="#C8E7DF"/>
<path d="M151.24 82.93C151.208 83.2708 151.098 83.5997 150.918 83.891C150.739 84.1823 150.494 84.428 150.204 84.6091C149.913 84.7902 149.585 84.9016 149.244 84.9347C148.903 84.9678 148.56 84.9217 148.24 84.8C147.53 84.57 147.29 84.88 146.91 85.36C146.643 85.7611 146.271 86.08 145.833 86.281C145.396 86.482 144.911 86.5571 144.433 86.4979C143.956 86.4387 143.504 86.2475 143.129 85.9459C142.754 85.6442 142.47 85.2439 142.31 84.79C142.102 84.3533 142.043 83.8605 142.143 83.3873C142.242 82.914 142.494 82.4864 142.86 82.17C143.126 81.7921 143.509 81.5121 143.95 81.373C144.39 81.2339 144.865 81.2434 145.3 81.4C145.646 81.5911 146.051 81.6448 146.435 81.5502C146.818 81.4557 147.152 81.2199 147.37 80.89C147.675 80.5371 148.094 80.3019 148.554 80.2252C149.014 80.1485 149.487 80.2351 149.89 80.47C150.356 80.6722 150.741 81.0237 150.986 81.469C151.23 81.9144 151.319 82.4283 151.24 82.93V82.93Z" fill="#F8CEE1"/>
<path d="M123.16 105.19C121.639 104.282 120.286 103.118 119.16 101.75C118.59 101.11 118.16 100.37 117.62 99.6699C117.991 99.4693 118.417 99.395 118.834 99.4582C119.251 99.5213 119.635 99.7185 119.93 100.02C120.785 100.624 121.511 101.392 122.066 102.279C122.621 103.167 122.993 104.157 123.16 105.19Z" fill="#F8CEE1"/>
<path d="M58.1104 33.18C58.2004 32.63 58.3004 32.08 58.3904 31.53L59.1104 32.94L58.1104 33.18Z" fill="#FEBB45"/>
<path d="M87.8799 33.43C87.9699 33.32 88.0999 33.29 88.1799 33.43C89.6999 35.29 91.1799 37.17 91.2499 39.74C90.4036 37.5001 89.2708 35.3791 87.8799 33.43Z" fill="#F0CB97"/>
<path d="M102.83 73.36C103.03 72.93 103.42 72.99 103.92 72.76C103.6 73.33 103.39 73.61 102.83 73.36Z" fill="#FCF0F5"/>
<path d="M147.35 84.1201C147.24 84.1201 147.19 84.1201 147.16 84.1201C146.913 83.9245 146.722 83.6671 146.606 83.3739C146.49 83.0806 146.453 82.7619 146.5 82.4501C146.505 82.4109 146.521 82.3738 146.545 82.3427C146.57 82.3116 146.602 82.2876 146.639 82.2733C146.676 82.2589 146.716 82.2548 146.755 82.2613C146.794 82.2678 146.83 82.2846 146.86 82.3101C147.103 82.5356 147.278 82.8249 147.365 83.1449C147.451 83.4649 147.446 83.8028 147.35 84.1201V84.1201Z" fill="#FBE1ED"/>
<path d="M64.1205 37.1999L65.3305 36.1999C66.3554 35.2473 67.6674 34.6618 69.0609 34.5351C70.4544 34.4084 71.8506 34.7478 73.0304 35.4999C75.0368 36.7995 76.8946 38.3152 78.5705 40.0199C79.5608 41.0979 80.4294 42.2817 81.1605 43.5499C81.3205 43.7999 81.2105 44.2299 81.2305 44.5499C80.8906 44.4093 80.5763 44.2133 80.3005 43.9699C79.5215 42.9202 78.68 41.9184 77.7804 40.9699C76.1396 39.3456 74.3331 37.8977 72.3904 36.6499C69.2004 34.7999 66.3104 36.3199 64.2804 39.2299C63.9849 39.6079 63.8515 40.0878 63.9097 40.5641C63.9678 41.0404 64.2127 41.4741 64.5905 41.7699C68.5905 46.1699 71.7604 51.0699 73.1104 56.9599C73.6004 59.0599 72.7105 60.4499 70.6205 60.9599C70.3509 61.0179 70.0936 61.1228 69.8604 61.2699C72.0104 61.6899 74.2104 62.1399 76.2804 61.3399C77.455 60.7226 78.5358 59.9415 79.4905 59.0199C79.5689 58.9326 79.6274 58.8292 79.662 58.7169C79.6965 58.6047 79.7062 58.4863 79.6905 58.3699C79.352 55.8305 78.4978 53.3871 77.1805 51.1899C77.7205 53.6099 78.6205 55.9799 77.9605 58.7899C76.9605 55.0899 76.0905 51.6699 75.2005 48.2399L75.3205 48.0599L76.6605 49.4599C75.2905 45.2099 72.6605 41.5599 70.4305 37.7299L70.7305 37.4199C71.1408 37.6744 71.5143 37.984 71.8405 38.3399C74.5146 41.7852 76.6521 45.6152 78.1805 49.6999C78.4827 50.5085 78.9891 51.2251 79.6505 51.7799C81.5805 53.3599 83.4705 54.9299 84.5605 57.2599C84.6923 57.468 84.868 57.6447 85.0753 57.7777C85.2826 57.9107 85.5164 57.9968 85.7605 58.0299C86.7611 58.0741 87.7636 58.0473 88.7605 57.9499C89.1729 57.968 89.5847 57.9008 89.9699 57.7524C90.3552 57.6041 90.7057 57.3778 90.9995 57.0877C91.2933 56.7977 91.5241 56.4501 91.6774 56.0668C91.8307 55.6835 91.9032 55.2726 91.8904 54.8599C91.9505 53.664 91.9505 52.4659 91.8904 51.2699C91.8205 50.8067 91.6859 50.3557 91.4905 49.9299C92.7805 49.8599 94.1505 49.6999 95.4905 49.7299C111.08 50.1099 126.67 50.4399 142.26 50.9399C153.14 51.2899 164.01 51.2399 174.87 50.5499C180.13 50.2099 185.36 49.5499 190.61 49.0199C190.72 49.0199 190.83 49.0199 191.05 49.3199C190.558 49.5879 190.034 49.7929 189.49 49.9299C186.49 50.3599 183.57 50.9299 180.59 51.0899C168.741 51.9464 156.856 52.2034 144.98 51.8599C137.42 51.5899 129.87 51.2499 122.31 51.0699C119.61 51.0099 116.9 51.3299 114.19 51.4399C113.78 51.4399 113.04 52.0899 113.01 50.9799C112.76 50.8934 112.495 50.8561 112.23 50.8699C110.771 51.0673 109.302 51.1808 107.83 51.2099C103.28 51.0399 98.7404 50.7399 94.1904 50.4999C93.7604 50.4999 93.3304 50.4999 92.8904 50.4999C92.8904 52.1399 93.0104 53.7299 92.8904 55.2999C92.6704 57.6299 91.4105 58.7799 89.0905 59.0099C88.5305 59.0699 87.9704 59.0099 87.4104 59.0099C86.581 59.0817 85.7499 58.893 85.0329 58.4699C84.3158 58.0469 83.7487 57.4107 83.4105 56.6499C82.4092 55.2039 81.2633 53.8637 79.9905 52.6499L79.7204 52.8699C80.0875 54.186 80.3813 55.5214 80.6005 56.8699C80.7505 58.2299 81.0305 59.7399 79.6005 60.4099C82.0305 63.8499 84.3505 67.2399 86.7905 70.5499C93.4905 79.7299 100.3 88.8299 107.05 97.9299C111.558 103.9 115.666 110.16 119.35 116.67C120.82 119.138 121.935 121.801 122.66 124.58C123.42 127.97 123.43 131.53 123.75 135.02C125.2 150.87 124.48 166.76 124.43 182.63C124.43 193.57 123.38 204.44 120.38 215.02C119.78 217.12 118.44 219.02 117.38 220.97C117.26 221.19 116.83 221.24 116.54 221.37C116.536 221.049 116.58 220.728 116.67 220.42C117.04 219.64 117.49 218.9 117.95 218.07C116.73 218.07 115.65 217.97 114.6 218.07C110 218.55 105.34 218.81 100.81 219.68C97.0565 220.45 93.621 222.332 90.9505 225.08C87.8705 228.15 88.4905 231.48 92.4605 233.25C98.0836 235.595 104.082 236.913 110.17 237.14C116.43 237.53 122.69 237.97 128.96 238.19C138 238.529 147.051 238.111 156.02 236.94C159.81 236.279 163.461 234.984 166.82 233.11C169.66 231.67 170.05 228.52 167.91 226.11C166.571 224.664 164.884 223.583 163.01 222.97C157.386 220.989 151.526 219.759 145.58 219.31C144.71 219.25 143.84 219.09 142.97 218.98V218.52C143.278 218.46 143.588 218.42 143.9 218.4C150.798 218.36 157.637 219.657 164.04 222.22C165.777 222.926 167.349 223.981 168.66 225.32C171.66 228.32 170.8 232.45 166.98 234.32C162.482 236.611 157.595 238.039 152.57 238.53C143.086 239.386 133.554 239.603 124.04 239.18C117.5 238.86 110.97 238.18 104.44 237.64C100.126 237.164 95.9174 235.988 91.9805 234.16C87.4105 232.16 86.6604 227.83 90.2204 224.35C93.8815 220.759 98.6504 218.514 103.75 217.98C107.63 217.51 111.56 217.41 115.46 217.1C116.451 217.034 117.427 216.829 118.36 216.49C118.58 216.339 118.765 216.145 118.907 215.92C119.048 215.695 119.141 215.443 119.18 215.18C120.18 210.34 121.33 205.51 122.08 200.62C123.38 192.18 123.34 183.62 123.37 175.12C123.37 167.56 123.61 160 123.51 152.45C123.43 146.85 123 141.26 122.71 135.67C122.5 131.77 122.56 127.81 121.35 124.04C120.689 121.866 119.815 119.762 118.74 117.76C114.451 110.217 109.65 102.977 104.37 96.0899C99.4638 89.5299 94.5971 82.9366 89.7705 76.3099C86.0905 71.3099 82.5005 66.1799 78.7705 60.9899L77.4005 61.9899L79.1305 62.2799C78.8005 62.4599 78.6605 62.5899 78.5105 62.5999C76.2988 62.72 74.0822 62.72 71.8705 62.5999C66.7605 62.0399 62.2105 60.0799 58.8705 56.0899C57.5855 54.5699 56.6506 52.7857 56.1322 50.864C55.6137 48.9423 55.5244 46.93 55.8705 44.9699C55.8713 44.5836 55.814 44.1993 55.7005 43.8299C55.1105 40.8299 54.1504 37.9199 54.0004 34.9299C53.7969 31.9014 54.2252 28.8636 55.2581 26.0094C56.291 23.1552 57.9059 20.5469 60.0004 18.3499C62.3026 15.8012 65.1579 13.8135 68.3474 12.5395C71.5369 11.2654 74.9759 10.7388 78.4005 10.9999C89.4805 11.6299 98.7604 20.6199 100.8 31.4599C101.159 34.286 101.346 37.1312 101.36 39.9799C101.59 39.9799 102 40.0599 102.42 40.0599C110.42 40.0599 118.5 39.8599 126.53 40.0599C138.97 40.3099 151.4 40.7199 163.83 41.1899C172.665 41.4374 181.47 42.3129 190.18 43.8099C191.678 44.1881 193.108 44.7952 194.42 45.6099C194.633 45.7903 194.795 46.0218 194.893 46.2824C194.991 46.5431 195.021 46.8245 194.98 47.0999C194.81 47.6199 194.15 47.9699 193.63 48.4499C193.49 48.0799 193.41 47.9899 193.44 47.9399C194.15 46.4599 194.1 46.0099 192.44 45.5399C190.065 44.8479 187.642 44.3332 185.19 43.9999C172.08 42.2799 158.89 41.9999 145.69 41.7399C136.5 41.5999 127.31 41.1899 118.11 40.9899C112.72 40.8799 107.32 40.9899 101.92 40.8899C100.64 40.8899 100.77 41.6599 100.59 42.5999C101.76 42.6699 102.9 42.8099 104.03 42.7899C110.23 42.6399 116.42 42.4099 122.61 42.3099C127.37 42.2399 132.13 42.3099 136.88 42.3099C144.68 42.4299 152.49 42.4199 160.27 42.8099C166.53 43.1199 172.76 43.9399 179 44.5499C180.5 44.6999 182 44.9599 183.5 45.1699V45.5199C182.971 45.5551 182.44 45.5551 181.91 45.5199C178.66 45.0899 175.43 44.4299 172.17 44.2199C164.924 43.7533 157.66 43.4199 150.38 43.2199C141.98 42.9699 133.58 42.7899 125.19 42.8099C119.27 42.8099 113.36 43.2399 107.45 43.4499C106.21 43.4499 104.97 43.4499 103.73 43.4499C102.571 43.3481 101.413 43.6597 100.462 44.3295C99.5098 44.9993 98.8258 45.9843 98.5304 47.1099C99.7704 47.1999 100.99 47.2999 102.22 47.3699C107.17 47.6199 112.12 47.9099 117.07 48.1099C122.42 48.3299 127.78 48.4399 133.13 48.6299C146.69 49.1099 160.25 48.9599 173.79 48.3199C178.3 48.1099 182.79 47.4199 187.26 46.9399C187.575 46.8755 187.883 46.7817 188.18 46.6599L186.8 45.8699L187 45.3999C187.737 45.5791 188.435 45.8908 189.06 46.3199C189.67 46.9199 189.06 47.4299 188.43 47.5899C187.233 47.8949 186.017 48.1253 184.79 48.2799C169.456 49.6778 154.05 50.1219 138.66 49.6099C134.3 49.5099 129.94 49.4499 125.58 49.2699C120.35 49.0599 115.13 48.7299 109.9 48.4699C106.82 48.3199 103.74 48.2699 100.67 48.0799C95.2904 47.7399 89.9104 47.3299 84.5304 46.9399C83.4404 46.8599 82.3604 46.7599 81.2804 46.6599V46.1799L91.5804 46.6299C91.1104 42.6299 90.6704 38.7799 88.4704 35.3899C86.3465 32.0245 83.6687 29.0425 80.5505 26.5699C82.5505 26.3399 85.8004 29.6699 88.6904 33.7699C90.7904 36.7699 91.3805 38.4699 92.4905 44.4399L96.3304 40.6399L94.9605 40.1099L96.1604 39.6999C93.8505 34.9299 90.9504 30.6999 86.3304 27.8999C84.6904 26.8999 82.9905 26.0199 81.2705 25.1699C81.0509 25.0871 80.8155 25.0549 80.5817 25.0757C80.348 25.0964 80.122 25.1697 79.9204 25.2899C78.0665 26.5626 76.5635 28.2823 75.5505 30.2899C75.3762 30.6072 75.179 30.9114 74.9605 31.1999L74.5205 31.0699C74.5311 30.5777 74.6119 30.0894 74.7605 29.6199C75.8697 27.477 77.5039 25.6502 79.5105 24.3099C79.8268 24.0638 80.2079 23.9149 80.6073 23.8811C81.0067 23.8474 81.4073 23.9304 81.7605 24.1199C82.5805 24.5199 83.4305 24.8699 84.3805 25.2999C84.6205 23.3599 84.9504 21.5099 85.0304 19.6399C84.9801 19.3183 84.8657 19.01 84.6939 18.7334C84.5221 18.4569 84.2965 18.2176 84.0304 18.0299C80.4904 15.3799 76.6105 15.4499 72.6305 16.8199C71.8505 17.0899 71.6305 17.5599 71.8205 18.3999C72.2031 20.4075 73.0037 22.312 74.1704 23.9899C74.6904 24.8299 75.0804 25.7499 75.5304 26.6299L75.2204 26.8299C75.0304 26.7299 74.7505 26.6699 74.6805 26.5099C73.4905 23.9299 71.4905 21.6899 71.1205 18.7199C70.9005 17.0999 71.1205 16.4999 72.6305 15.9499C76.5305 14.5499 80.3405 14.3799 84.0205 16.7399C85.8405 17.8999 86.3405 18.7399 85.9605 20.8999C85.7005 22.3899 85.4004 23.8999 85.1704 25.3599C85.1704 25.5699 85.3805 25.8199 85.6305 26.3599C86.1805 24.9199 86.6305 23.7799 87.0705 22.6599C87.335 21.961 87.6701 21.2909 88.0705 20.6599C88.2519 20.3798 88.4947 20.1447 88.7805 19.9723C89.0663 19.7999 89.3876 19.6948 89.72 19.6649C90.0524 19.635 90.3872 19.6812 90.6992 19.7999C91.0111 19.9186 91.292 20.1067 91.5205 20.3499C93.4662 22.2611 95.0039 24.5473 96.0405 27.0699C96.459 27.8654 96.5564 28.791 96.3127 29.6562C96.069 30.5213 95.5027 31.26 94.7305 31.7199C94.4322 31.9168 94.1137 32.081 93.7804 32.2099L93.5405 31.8999C93.7778 31.6027 94.0315 31.3189 94.3004 31.0499C95.7204 29.7499 96.0504 28.5499 95.0504 26.8999C93.8783 24.9992 92.5996 23.1663 91.2204 21.4099C90.2204 20.1799 89.2204 20.3199 88.5004 21.7199C87.7804 23.1199 87.1004 24.8599 86.3604 26.5599C89.7814 28.5146 92.6509 31.3049 94.7005 34.6699C95.292 34.298 95.9066 33.964 96.5405 33.6699C97.1957 33.4552 97.8636 33.2815 98.5405 33.1499C97.1805 25.9999 93.7505 20.2099 86.9805 16.6399L87.3405 16.2299C88.716 16.8396 90.0317 17.5761 91.2705 18.4299C95.5372 21.8967 98.3374 26.847 99.1104 32.2899C99.3604 33.9299 99.1905 33.9599 97.5905 34.1699C96.6876 34.4313 95.8234 34.8113 95.0205 35.2999C96.0205 36.2999 95.8605 38.0599 97.6205 38.4899L97.3904 39.3199L97.7305 39.4799C98.0279 38.9077 98.2787 38.3125 98.4805 37.6999C98.6192 37.0236 98.7127 36.3387 98.7605 35.6499H99.1305C99.2105 37.1099 99.2804 38.5699 99.3604 40.0399L99.6805 40.1299C99.8105 39.8399 100.05 39.5499 100.04 39.2699C99.9305 36.4799 100.24 33.5799 99.5605 30.9399C97.3805 22.3599 92.1804 16.1399 83.6704 13.2899C80.2222 12.028 76.4986 11.714 72.8877 12.3806C69.2769 13.0471 65.9108 14.67 63.1404 17.0799C55.7004 23.2099 53.6304 31.2499 55.6704 40.4899C55.9504 41.7599 56.3304 43.0099 56.6704 44.1899C58.2104 43.7599 59.5805 43.3699 60.9605 43.0099C61.1205 43.0099 61.3205 43.0999 61.9105 43.2799C61.3605 43.5651 60.7965 43.8221 60.2204 44.0499C55.6504 45.4699 56.3105 45.2599 57.0705 49.1899C57.4326 51.6666 58.5283 53.978 60.2161 55.8263C61.904 57.6746 64.1068 58.975 66.5405 59.5599C67.7433 59.8236 68.9851 59.8576 70.2005 59.6599C70.4775 59.6634 70.7515 59.6018 71.0003 59.48C71.2492 59.3583 71.466 59.1798 71.6334 58.959C71.8007 58.7382 71.9138 58.4812 71.9637 58.2087C72.0135 57.9361 71.9987 57.6557 71.9204 57.3899C71.6842 55.5216 71.2242 53.6885 70.5505 51.9299C68.9044 48.229 66.5227 44.9016 63.5505 42.1499C63.1054 41.8067 62.7982 41.3152 62.6845 40.7648C62.5707 40.2144 62.658 39.6415 62.9305 39.1499C63.297 38.4917 63.7044 37.8571 64.1505 37.2499L64.1205 37.1999ZM97.4905 45.9299L96.8505 45.7099L98.4204 39.9299L98.0304 39.6799L96.6505 41.1999C95.5238 42.4133 94.3971 43.6266 93.2705 44.8399C92.8205 45.3299 92.3905 45.8399 91.9605 46.3299L92.2204 46.6699C93.2904 46.7499 94.3504 46.8399 95.4204 46.9099C96.0904 46.9099 96.9204 47.2199 97.4204 46.9099C97.9204 46.5999 97.9404 45.7599 98.1904 45.1599C98.1904 45.0499 98.3504 44.9799 98.4104 44.8799C98.9331 43.9979 99.3974 43.0826 99.8004 42.1399C99.8961 41.537 99.8961 40.9228 99.8004 40.3199H99.4905C98.8238 42.1866 98.1571 44.0566 97.4905 45.9299Z" fill="black"/>
<path d="M179.99 64.6599C181.59 62.7299 183.21 60.8199 184.78 58.8699C187.06 56.0299 189.3 53.1599 191.57 50.3199C191.82 49.9999 192.13 49.7199 192.41 49.4199L192.68 49.6099C192.411 50.1575 192.103 50.6855 191.76 51.1899C187.35 56.9799 182.88 62.7199 178.52 68.5499C172.24 76.9399 166.08 85.4099 159.8 93.7999C156.04 98.7999 152.15 103.75 148.36 108.8C145.83 112.14 143.29 115.49 140.94 118.97C139.217 121.536 138.165 124.492 137.88 127.57C137.5 131.13 136.67 134.64 136.3 138.2C135.77 143.2 135.48 148.2 135.11 153.14C134.58 160.08 134.03 167.01 133.56 173.95C132.822 183.088 133.198 192.282 134.68 201.33C135.33 204.99 135.68 208.71 136.57 212.33C137.293 214.722 138.181 217.061 139.23 219.33V219.33C139.65 220.33 140.06 221.39 140.48 222.41C140.79 223.16 141.13 223.91 141.48 224.66L141.04 224.91C140.422 224.181 139.867 223.402 139.38 222.58C136.677 217.306 134.93 211.594 134.22 205.71C133.73 201.3 132.81 196.92 132.57 192.51C132.229 186.849 132.192 181.174 132.46 175.51C133.04 164.74 133.84 153.97 134.78 143.21C135.271 137.238 136.078 131.296 137.2 125.41C137.73 122.68 139.31 120.1 140.7 117.6C141.87 115.5 143.46 113.6 144.82 111.6C143.08 112.99 141.35 114.35 139.04 114.51L138.87 114.23C139.113 114.047 139.374 113.89 139.65 113.76C142.047 112.828 144.114 111.207 145.59 109.1C153.5 98.1999 161.42 87.2899 169.44 76.4699C172.68 72.1099 176.21 67.9599 179.58 63.6999C180.92 61.9999 182.18 60.2499 183.48 58.5299C183.73 58.2096 183.997 57.9025 184.28 57.6099L184.62 57.8699C183.08 60.1599 181.54 62.4399 180.01 64.7299C179.873 64.8035 179.748 64.898 179.64 65.0099C176.17 69.3499 172.64 73.6299 169.28 78.0099C163.9 85.1199 158.64 92.3099 153.36 99.4899C151.86 101.49 150.49 103.67 149.06 105.76C150.97 103.75 152.756 101.626 154.41 99.3999C162.87 88.0666 171.316 76.7333 179.75 65.3999C179.853 65.1615 179.934 64.9137 179.99 64.6599V64.6599Z" fill="black"/>
<path d="M132.49 215.93C132.764 214.918 132.919 213.878 132.95 212.83C132.76 210.61 132.2 208.42 132.03 206.2C131.56 200.11 130.94 194.01 130.88 187.91C130.72 170.2 130.79 152.49 130.83 134.78C130.756 130.579 131.306 126.39 132.46 122.35C132.548 122.108 132.648 121.871 132.76 121.64L133.06 121.69C133.06 122.15 133.06 122.62 132.94 123.08C131.75 129.64 131.74 136.28 131.75 142.92C131.75 156.47 131.75 170.02 131.88 183.57C131.96 190.12 132.34 196.67 132.72 203.21C132.85 205.43 133.46 207.61 133.72 209.83C133.907 211.212 133.944 212.61 133.83 214C133.62 214.761 133.282 215.481 132.83 216.13L132.49 215.93Z" fill="black"/>
<path d="M129.97 217.51C129.496 218.011 128.874 218.346 128.195 218.466C127.517 218.587 126.817 218.487 126.2 218.18C124.61 217.5 123.33 216.33 123.39 214.5C123.47 211.79 123.81 209.1 124.11 206.41C124.72 201.09 125.67 195.8 125.94 190.47C126.56 178.34 126.94 166.19 127.24 154.04C127.338 146.126 126.8 138.217 125.63 130.39C125.48 129.31 125.41 128.22 125.3 127.14L125.75 127.05C125.96 127.97 126.23 128.89 126.38 129.82C128.54 142.62 128.38 155.53 128.01 168.44C127.803 175.107 127.51 181.773 127.13 188.44C126.805 195.347 125.983 202.221 124.67 209.01C124.387 210.624 124.26 212.262 124.29 213.9C124.279 214.402 124.374 214.9 124.571 215.362C124.767 215.824 125.059 216.239 125.428 216.58C125.797 216.92 126.234 217.178 126.71 217.337C127.186 217.496 127.69 217.551 128.19 217.5C128.78 217.49 129.38 217.51 129.97 217.51Z" fill="black"/>
<path d="M92.2299 226.12C91.9918 226.286 91.7951 226.505 91.6553 226.76C91.5155 227.014 91.4362 227.298 91.4236 227.588C91.411 227.878 91.4655 228.167 91.5828 228.433C91.7001 228.699 91.8771 228.934 92.0999 229.12C93.8173 231.165 96.22 232.516 98.8599 232.92C102.08 233.53 105.34 233.92 108.59 234.26C114.31 234.85 120.03 235.55 125.77 235.83C134.05 236.24 142.3 235.4 150.53 234.51C152.95 234.25 155.37 233.89 157.8 233.74C158.94 233.691 160.058 233.413 161.089 232.924C162.12 232.434 163.042 231.743 163.8 230.89C164.204 230.592 164.653 230.359 165.13 230.2C164.928 230.708 164.688 231.2 164.41 231.67C162.56 234.23 159.77 234.67 156.89 235C145.89 236.13 134.78 237.47 123.65 236.92C118.83 236.69 114.03 235.97 109.23 235.42C105.85 235.03 102.48 234.65 99.1299 234.09C96.4063 233.718 93.8929 232.423 92.0099 230.42C91.3578 229.632 90.8959 228.705 90.6599 227.71C90.4899 226.93 90.8899 226.22 92.2299 226.12Z" fill="black"/>
<path d="M84.4897 60.77C86.1797 60.87 87.8697 60.99 89.5597 61.08C101.82 61.68 114.08 62.31 126.34 62.85C136.652 63.2272 146.978 62.7422 157.21 61.4C164.915 60.5583 172.549 59.1545 180.05 57.2C181.644 56.8969 183.14 56.2105 184.41 55.2L183.46 54.47C184.04 54.47 184.46 54.47 184.66 54.59C184.86 54.71 185.21 55.36 185.1 55.59C184.886 56.0077 184.532 56.3369 184.1 56.52C181.69 57.34 179.28 58.17 176.83 58.84C166.83 61.58 156.46 62.55 146.15 63.27C138.39 63.81 130.57 63.55 122.78 63.49C117.38 63.49 111.98 63.23 106.59 62.92C99.8497 62.54 93.1197 62 86.3797 61.5C85.7346 61.4065 85.0964 61.2695 84.4697 61.09L84.4897 60.77Z" fill="black"/>
<path d="M134.73 115.61C133.976 115.881 133.195 116.069 132.4 116.17C129.12 116.414 125.825 115.978 122.72 114.89C121.536 114.453 120.485 113.715 119.67 112.75C114.04 105.28 108.52 97.7501 102.96 90.2101C97.4002 82.6701 91.8502 75.1501 86.2702 67.6401C85.2658 66.4392 84.3373 65.1767 83.4902 63.8601C83.9576 64.1732 84.3931 64.5316 84.7902 64.9301C86.6802 67.2001 88.6202 69.4401 90.3702 71.8101C98.2302 82.5001 106.03 93.2501 113.88 103.95C116.1 106.95 118.4 109.95 120.69 112.95C120.926 113.206 121.221 113.398 121.55 113.51C125.369 114.983 129.468 115.591 133.55 115.29C133.92 115.29 134.29 115.29 134.66 115.29L134.73 115.61Z" fill="black"/>
<path d="M168.43 53.39C168.069 53.4464 167.705 53.4832 167.34 53.5C154.82 53.44 142.303 53.3833 129.79 53.33C121.72 53.33 113.64 53.33 105.57 53.33C101.97 53.33 98.38 53.64 94.78 53.8C94.36 53.8 93.94 53.8 93.52 53.8L93.46 53.46C93.9496 53.3075 94.4515 53.1971 94.96 53.13C100.79 52.85 106.63 52.37 112.46 52.39C126.2 52.39 139.94 52.71 153.69 52.86C158.17 52.86 162.69 52.86 167.12 52.86C167.56 52.86 168 52.94 168.44 52.98L168.43 53.39Z" fill="black"/>
<path d="M67.68 33.7501C66.44 33.1601 65.22 32.5401 63.96 31.9701C63.1751 31.5639 62.3464 31.2485 61.49 31.0301C61.1295 30.926 60.7518 30.8955 60.3793 30.9403C60.0067 30.9851 59.647 31.1043 59.3214 31.2909C58.9959 31.4775 58.7112 31.7276 58.4842 32.0263C58.2572 32.3251 58.0925 32.6664 58 33.0301C57.46 34.6101 56.68 36.1701 57 37.9301C57.19 38.9301 57.4501 39.8201 57.5901 40.8201C57.215 40.5371 56.9043 40.1777 56.6785 39.7657C56.4527 39.3537 56.3169 38.8985 56.28 38.4301C55.8752 34.3533 56.4512 30.2389 57.96 26.4301C58.96 23.9201 59.96 21.4301 61.96 19.4301C64.4066 17.0687 67.3091 15.2313 70.49 14.0301C73.7749 12.594 77.4323 12.2436 80.93 13.0301C81.7376 13.224 82.5033 13.5629 83.19 14.0301C75.73 12.0301 69.32 14.3001 63.71 19.0301C60.46 21.7601 57.64 28.2401 57.43 32.0301C57.5 32.0301 57.61 32.0301 57.64 31.9801C59.07 29.9001 60.8 29.4801 63.53 30.8101C64.89 31.4801 66.19 32.2501 67.53 32.9901C67.6948 33.1097 67.8487 33.2435 67.99 33.3901L67.68 33.7501Z" fill="black"/>
<path d="M95.9701 74.55C96.3401 74.81 96.7401 75.03 97.0801 75.32C100.257 77.8242 102.966 80.8713 105.08 84.32C106.77 87.26 108.46 90.21 110.35 93.03C111.27 94.263 112.389 95.3342 113.66 96.2C114.179 96.5224 114.792 96.6593 115.398 96.5885C116.005 96.5177 116.57 96.2432 117 95.81C117.372 95.4657 117.611 95.0023 117.677 94.5001C117.743 93.9978 117.63 93.4884 117.36 93.06C116.36 90.83 115.28 88.65 114.24 86.45C114.09 86.12 113.99 85.76 113.87 85.45L114.12 85.29C114.31 85.44 114.57 85.56 114.67 85.75C115.81 87.86 117 89.95 118.02 92.12C119.04 94.29 118.76 95.62 117.55 96.62C116.864 97.2308 115.981 97.574 115.063 97.5868C114.145 97.5997 113.253 97.2813 112.55 96.69C111.272 95.7471 110.189 94.5653 109.36 93.21C105.73 86.75 102.03 80.36 96.3601 75.43C96.1653 75.2432 95.9879 75.039 95.8301 74.82L95.9701 74.55Z" fill="black"/>
<path d="M113.83 222.7C112.83 223.7 111.83 224.7 110.77 225.7C110.22 226.22 109.55 226.61 109.03 227.16C108.29 227.92 108.36 228.57 109.36 228.9C110.89 229.472 112.492 229.829 114.12 229.96C120.54 230.21 126.98 230.29 133.41 230.44C133.837 230.443 134.249 230.599 134.57 230.88C134.395 231.01 134.199 231.108 133.99 231.17C126.418 231.834 118.796 231.666 111.26 230.67C110.356 230.511 109.489 230.19 108.7 229.72C107.24 228.92 107.07 227.65 108.29 226.49C109.24 225.58 110.29 224.84 111.36 224C111.91 223.54 112.36 223 112.95 222.55C113.1 222.42 113.35 222.43 113.56 222.37L113.83 222.7Z" fill="black"/>
<path d="M120.64 219.71C120.95 220.059 121.149 220.493 121.211 220.957C121.274 221.42 121.197 221.891 120.99 222.31C120.61 223.4 120.05 224.42 119.59 225.48C119.22 226.34 119.45 226.99 120.44 226.95C124.38 226.82 128.35 227.29 132.25 226.41C132.369 226.399 132.484 226.366 132.59 226.31C133.11 225.95 133.59 225.56 134.14 225.19C133.589 224.886 133.005 224.644 132.4 224.47C130.87 224.19 129.32 224.05 127.78 223.8C127.49 223.75 127.25 223.45 126.98 223.26C127.3 223.13 127.64 222.87 127.98 222.9C129.81 223.07 131.64 223.3 133.46 223.55C134.28 223.66 135.07 223.96 135.22 224.91C135.286 225.346 135.19 225.792 134.948 226.161C134.706 226.53 134.336 226.797 133.91 226.91C132.532 227.413 131.098 227.748 129.64 227.91C127.01 228.1 124.37 228.03 121.73 228.05C121.249 228.062 120.768 228.038 120.29 227.98C119.944 227.993 119.602 227.912 119.3 227.744C118.997 227.577 118.746 227.331 118.573 227.031C118.4 226.732 118.312 226.391 118.319 226.045C118.325 225.7 118.426 225.363 118.61 225.07C119.02 224.12 119.61 223.22 119.94 222.25C120.216 221.416 120.449 220.568 120.64 219.71V219.71Z" fill="black"/>
<path d="M71.2998 33.0199L70.2398 31.1699C71.9398 31.6199 72.3698 32.7999 72.2398 34.4099C71.8007 34.3491 71.3728 34.2244 70.9698 34.0399C69.2298 32.8999 67.5198 31.7399 65.8498 30.5099C64.7157 29.6954 63.6367 28.8068 62.6198 27.8499C62.0919 27.4313 61.7361 26.8335 61.6198 26.1699C61.5393 23.9296 62.3398 21.7469 63.8498 20.0899C65.6198 18.2599 68.9698 18.9499 70.2198 20.4699C70.3398 20.6199 70.4898 20.7599 70.6098 20.9299C70.9494 21.3727 71.2601 21.837 71.5398 22.3199C72.6598 24.3799 73.7398 26.4499 74.7498 28.7499C74.3998 28.5499 73.9198 28.4399 73.7498 28.1399C72.9698 27.0399 72.2698 25.8799 71.5598 24.7299C70.8498 23.5799 70.4098 22.6299 69.7598 21.6299C68.8798 20.2799 67.3598 19.9599 65.9698 19.5299C65.2798 19.3199 63.4098 20.9199 63.2098 21.7699C62.8966 22.9171 62.6759 24.0875 62.5498 25.2699C62.5271 25.9612 62.7788 26.6334 63.2498 27.1399C65.0098 28.6999 66.8698 30.1399 68.7298 31.5899C69.5098 32.1999 70.3698 32.6799 71.1998 33.2199L71.2998 33.0199Z" fill="black"/>
<path d="M159.06 59.6699C143.84 62.0899 128.57 61.9399 113.28 60.7799C128.548 61.4202 143.841 61.0494 159.06 59.6699V59.6699Z" fill="black"/>
<path d="M124.25 54.6101L162.89 55.3701C149.95 56.4201 137.11 55.2301 124.25 54.6101Z" fill="black"/>
<path d="M145.49 87.2099C145.639 86.9171 145.853 86.6625 146.116 86.4658C146.379 86.2692 146.684 86.1357 147.007 86.0757C147.33 86.0158 147.662 86.031 147.979 86.1201C148.295 86.2093 148.586 86.37 148.83 86.5899C150.83 88.0399 151 90.6499 148.98 91.9999C147.661 92.7988 146.202 93.3385 144.68 93.5899C143.38 93.8499 142.32 92.5899 142.26 91.1999C142.221 90.8751 142.249 90.5458 142.343 90.2322C142.436 89.9187 142.592 89.6275 142.802 89.3765C143.011 89.1255 143.27 88.92 143.562 88.7727C143.854 88.6254 144.174 88.5394 144.5 88.5199C144.13 88.9899 143.7 89.3099 143.6 89.7099C143.347 90.4231 143.308 91.1951 143.49 91.9299C143.67 92.3199 144.75 92.5799 145.33 92.4499C146.396 92.2131 147.411 91.79 148.33 91.1999C149.56 90.4099 149.65 89.5899 149 88.1999C148.47 87.0699 147.7 86.7499 146.31 87.0699L145.49 87.2099Z" fill="black"/>
<path d="M152.4 222.68C152.64 222.43 152.66 222.39 152.69 222.38C155.55 221.83 160.81 225.12 161.35 227.92C161.401 228.278 161.373 228.642 161.267 228.988C161.162 229.333 160.982 229.652 160.74 229.92C158.63 231.79 155.946 232.887 153.13 233.03C152.9 233.03 152.66 232.9 152.42 232.55C153.218 232.395 154.004 232.181 154.77 231.91C156.44 231.19 158.09 230.41 159.77 229.59C159.979 229.506 160.165 229.374 160.313 229.205C160.461 229.035 160.568 228.834 160.624 228.616C160.681 228.398 160.685 228.17 160.638 227.951C160.59 227.731 160.492 227.525 160.35 227.35C159.933 226.677 159.41 226.076 158.8 225.57C156.984 224.02 154.764 223.018 152.4 222.68V222.68Z" fill="black"/>
<path d="M75.2497 31.6599C75.7268 32.5015 76.2649 33.3069 76.8597 34.0699C78.6197 36.0699 80.4497 38.0699 82.2697 39.9799C83.3254 41.1447 83.8976 42.6681 83.8697 44.2399C83.8376 44.8117 83.7438 45.3783 83.5897 45.9299H83.1397C82.9762 45.4762 82.859 45.0072 82.7897 44.5299C82.7451 42.8785 82.0686 41.3072 80.8997 40.1399C79.3197 38.5099 77.7997 36.8099 76.3397 35.0799C75.8207 34.3792 75.3907 33.6167 75.0597 32.8099C74.9747 32.4634 74.951 32.1046 74.9897 31.7499L75.2497 31.6599Z" fill="black"/>
<path d="M62.49 43.1899C62.87 44.1899 63.21 45.1899 63.54 46.0799C64.62 49.0799 66.07 51.9299 68.98 53.6799C69.48 53.9799 69.98 54.2099 70.54 54.4799C70.54 54.4799 70.54 54.5499 70.54 54.8099C70.1378 54.928 69.7188 54.9787 69.3 54.9599C68.7147 54.8455 68.1596 54.6105 67.67 54.2699C66.0217 53.0033 64.6656 51.3965 63.6941 49.5587C62.7225 47.7209 62.1584 45.6953 62.04 43.6199C62.04 43.6199 62.15 43.5099 62.49 43.1899Z" fill="black"/>
<path d="M107.67 220.42C107.34 220.49 107.01 220.55 106.67 220.64C103.25 221.64 99.8101 222.49 97.0101 224.86C95.7801 225.86 94.87 227.05 95.66 228.79C95.71 228.89 95.5901 229.07 95.2301 229.35C94.9901 228.88 94.49 228.35 94.58 227.96C94.6926 226.92 95.0752 225.927 95.69 225.08C96.7908 223.925 98.0919 222.98 99.53 222.29C101.583 221.422 103.691 220.69 105.84 220.1C106.434 220.015 107.036 220.015 107.63 220.1L107.67 220.42Z" fill="black"/>
<path d="M79.1699 47.8101L88.1199 48.7301V49.2801L83.6799 49.0601C84.7599 51.3801 84.7799 53.6001 83.5499 54.7101C83.3999 52.7101 83.2699 50.8501 83.1299 49.0101L79.1299 48.2101L79.1699 47.8101Z" fill="black"/>
<path d="M94.4004 59.74L109.95 60.31C109 61.16 95.6104 60.63 94.4004 59.74Z" fill="black"/>
<path d="M120.64 116.93C123.92 120.17 128.15 118.72 131.96 119.31C127.91 120.76 122.07 120.42 120.64 116.93Z" fill="black"/>
<path d="M100.06 71.77C100.082 72.4928 100.186 73.2106 100.37 73.91C100.49 74.21 101.1 74.38 101.52 74.49C101.69 74.49 102.15 74.14 102.12 74.07C101.995 73.678 101.795 73.3143 101.53 73C101.156 72.6399 100.759 72.3058 100.34 72C100.594 71.8785 100.87 71.8104 101.151 71.7999C101.433 71.7894 101.713 71.8366 101.976 71.9388C102.238 72.0409 102.477 72.1958 102.677 72.3938C102.877 72.5918 103.035 72.8288 103.14 73.09C103.254 73.2907 103.324 73.5132 103.345 73.743C103.367 73.9728 103.339 74.2046 103.265 74.4229C103.19 74.6413 103.07 74.8413 102.912 75.0098C102.754 75.1782 102.563 75.3112 102.35 75.4C102.101 75.5256 101.83 75.5993 101.553 75.6167C101.275 75.6341 100.997 75.5948 100.735 75.5013C100.473 75.4077 100.233 75.2618 100.029 75.0725C99.8252 74.8832 99.6621 74.6544 99.5496 74.4C98.9096 73.19 99.1096 72.3 100.06 71.77Z" fill="black"/>
<path d="M162.06 64.6499C162.756 65.0331 163.41 65.489 164.01 66.0099C164.166 66.1532 164.29 66.3271 164.375 66.5208C164.459 66.7144 164.503 66.9235 164.503 67.1349C164.503 67.3463 164.459 67.5554 164.375 67.7491C164.29 67.9427 164.166 68.1166 164.01 68.2599C163.752 68.6023 163.373 68.8336 162.95 68.907C162.528 68.9803 162.093 68.8902 161.734 68.655C161.376 68.4197 161.12 68.0568 161.019 67.6399C160.918 67.223 160.979 66.7833 161.19 66.4099C161.38 65.9299 161.67 65.4399 162.06 64.6499ZM162.7 65.9599L161.94 66.1299L162.21 67.7799L163.21 67.5099C163.02 66.9999 162.86 66.4799 162.7 65.9299V65.9599Z" fill="black"/>
<path d="M143.26 82.2C144.43 81.68 145.39 81.95 145.77 82.79C145.857 82.961 145.908 83.148 145.92 83.3395C145.933 83.531 145.906 83.7229 145.841 83.9036C145.776 84.0843 145.676 84.2499 145.545 84.3903C145.414 84.5306 145.256 84.6428 145.08 84.72C144.664 85.0088 144.154 85.1291 143.653 85.0567C143.152 84.9844 142.697 84.7246 142.38 84.33C142.248 84.1638 142.156 83.9691 142.112 83.7613C142.068 83.5535 142.073 83.3383 142.126 83.1327C142.179 82.927 142.28 82.7366 142.419 82.5765C142.559 82.4164 142.734 82.2909 142.93 82.21C142.93 82.65 142.83 83 142.93 83.21C143.107 83.5637 143.4 83.846 143.76 84.01C143.99 84.08 144.35 83.75 144.66 83.6C144.473 83.2933 144.266 82.9993 144.04 82.72C143.797 82.5228 143.536 82.3487 143.26 82.2V82.2Z" fill="black"/>
<path d="M147.49 225.58C148.88 225.29 149.77 225.53 150.32 226.5C150.542 226.891 150.61 227.351 150.51 227.79C150.41 228.229 150.15 228.614 149.78 228.87C148.497 229.889 146.87 230.372 145.24 230.22L145.14 229.93C145.55 229.8 145.96 229.68 146.37 229.53C147.131 229.312 147.871 229.024 148.58 228.67C149.89 227.92 149.81 226.89 148.48 226.16C148.23 226.03 147.99 225.93 147.49 225.58Z" fill="black"/>
<path d="M173.31 66.9299C173.37 68.1699 170.47 72.6199 169.31 72.9999C169.26 71.9299 172.27 67.3299 173.31 66.9299Z" fill="black"/>
<path d="M163.56 81.2299C164.25 78.5399 166.06 76.7899 167.85 74.8999C167.96 75.9299 164.76 80.6699 163.56 81.2299Z" fill="black"/>
<path d="M134.21 104C133.38 104 132.78 103.53 133.01 102.83C133.125 102.502 133.309 102.202 133.548 101.95C133.788 101.699 134.078 101.501 134.4 101.37C134.578 101.33 134.763 101.333 134.94 101.377C135.116 101.422 135.28 101.508 135.417 101.628C135.554 101.747 135.662 101.898 135.73 102.067C135.798 102.236 135.826 102.418 135.81 102.6C135.78 103.59 134.97 103.85 134.21 104Z" fill="black"/>
<path d="M104.94 229.64C100.94 230.38 98.4604 229.12 98.6004 226.32C99.8704 228.93 102.32 229.18 104.94 229.64Z" fill="black"/>
<path d="M58.3004 47.9299C59.2671 49.2633 60.2438 50.5966 61.2304 51.9299L60.8504 52.2699L59.4904 50.8299L59.8704 52.9099L59.4704 52.9899C58.4704 51.4899 58.4704 49.6699 57.9404 47.9899L58.3004 47.9299Z" fill="black"/>
<path d="M148.75 83.6399C148.46 83.1199 147.95 82.6399 147.93 82.0899C147.959 81.823 148.054 81.5673 148.205 81.3458C148.357 81.1242 148.561 80.9436 148.8 80.8199C149.64 80.6099 150.67 81.5599 150.44 82.2699C150.26 82.7999 149.7 83.1999 149.31 83.6599L148.75 83.6399Z" fill="black"/>
<path d="M99.9297 230.85C101.93 231.19 103.54 231.45 105.15 231.77C105.34 231.77 105.47 232.14 105.63 232.33C105.48 232.44 105.3 232.65 105.18 232.63C103.59 232.32 102.02 231.98 100.44 231.63C100.32 231.59 100.24 231.33 99.9297 230.85Z" fill="black"/>
<path d="M118.56 107.93C117.298 106.43 116.499 104.595 116.26 102.65L116.65 102.48L118.93 107.74L118.56 107.93Z" fill="black"/>
<path d="M132.23 96.9299C132.83 97.5999 133.53 98.1399 133.45 98.3499C133.336 98.6121 133.167 98.8468 132.955 99.0383C132.743 99.2298 132.492 99.3735 132.22 99.4599C131.9 99.4599 131.22 98.8599 131.13 98.4599C131.04 98.0599 131.68 97.6599 132.23 96.9299Z" fill="black"/>
<path d="M64.9602 26.0801C66.3902 26.5301 68.3102 28.6001 68.2402 30.0801L64.7002 26.3001L64.9602 26.0801Z" fill="black"/>
<path d="M103.35 67.2601C102.659 67.7224 101.944 68.1496 101.21 68.5401C101.11 68.5401 100.77 68.1401 100.54 67.9301C101.074 67.3856 101.638 66.8715 102.23 66.3901C102.3 66.3401 102.74 66.7801 103.35 67.2601Z" fill="black"/>
<path d="M68.5802 26.76L71.7002 30.43C70.8259 30.2954 70.0293 29.8504 69.4563 29.1764C68.8834 28.5024 68.5723 27.6446 68.5802 26.76V26.76Z" fill="black"/>
<path d="M107.49 70.4799C106.83 70.9399 106.41 71.4799 105.95 71.4799C105.65 71.4799 105.29 70.8799 104.95 70.5499C105.372 70.1625 105.839 69.8268 106.34 69.5499C106.49 69.4499 106.89 69.9899 107.49 70.4799Z" fill="black"/>
<path d="M86.87 51.3601C86.87 52.4701 86.87 53.5901 86.87 54.7001C86.87 54.9001 86.6 55.1001 86.45 55.3001C86.3 55.0601 86 54.8201 86.01 54.6001C86.1 53.5101 86.26 52.4201 86.4 51.3301L86.87 51.3601Z" fill="black"/>
<path d="M122.01 109.41C120.64 108.62 120.45 107.11 119.84 105.85L120.25 105.59L122.44 109.11L122.01 109.41Z" fill="black"/>
<path d="M139.23 219.29C139.214 219.104 139.214 218.916 139.23 218.73C139.963 218.52 140.718 218.393 141.48 218.35C141.77 218.35 142.06 218.89 142.36 219.19L142.16 219.46L139.23 219.25V219.29Z" fill="black"/>
<path d="M168.02 72.9299L165.55 75.9299C165.26 74.7399 166.47 73.1599 167.71 72.6899L168.02 72.9299Z" fill="black"/>
<path d="M76.3499 41.9299C77.3484 42.8544 77.9594 44.1229 78.0599 45.4799L77.6399 45.6899L75.9199 42.1799L76.3499 41.9299Z" fill="black"/>
<path d="M58.5701 37.24L61.8501 39.62C61.4742 39.753 61.0715 39.7927 60.6769 39.7356C60.2822 39.6784 59.9074 39.5262 59.5846 39.292C59.2618 39.0578 59.0009 38.7487 58.8241 38.3912C58.6474 38.0337 58.5602 37.6386 58.5701 37.24V37.24Z" fill="black"/>
<path d="M64.1503 37.18C63.3771 37.2925 62.5877 37.1907 61.8683 36.8857C61.1489 36.5806 60.527 36.084 60.0703 35.45C61.6603 35.9 63.0703 36.08 64.0703 37.21L64.1503 37.18Z" fill="black"/>
<path d="M75.38 24.5601C75.09 23.3001 74.8 22.0401 74.46 20.5601C74.9777 21.0531 75.3668 21.6654 75.5934 22.3435C75.82 23.0216 75.8772 23.7448 75.76 24.4501L75.38 24.5601Z" fill="black"/>
<path d="M61.9004 54.1499C62.9004 54.9199 63.6304 55.5099 64.3704 56.1499C64.4281 56.2221 64.4651 56.3086 64.4774 56.4002C64.4897 56.4918 64.4769 56.585 64.4404 56.6699C64.3785 56.7361 64.3019 56.7869 64.2168 56.8181C64.1317 56.8494 64.0405 56.8603 63.9504 56.8499C63.1304 56.7499 62.0704 55.4799 61.9004 54.1499Z" fill="black"/>
<path d="M74.4204 47.21L72.1504 44.21C72.8099 44.3386 73.4129 44.6698 73.8754 45.1573C74.3378 45.6449 74.6367 46.2645 74.7304 46.93L74.4204 47.21Z" fill="black"/>
<path d="M65.4899 55.0901C66.0299 55.5801 66.5599 56.0301 67.0399 56.5201C67.0958 56.595 67.1331 56.6821 67.1487 56.7742C67.1644 56.8664 67.1579 56.9609 67.1299 57.0501C67.0861 57.1301 67.0228 57.1978 66.9459 57.2467C66.869 57.2957 66.7809 57.3244 66.6898 57.3301C65.8498 57.3601 65.0999 56.0801 65.4899 55.0901Z" fill="black"/>
<path d="M123.81 109.93C122.9 109.37 122.62 108.5 123.27 107.19L124.2 109.79L123.81 109.93Z" fill="black"/>
<path d="M73.9605 48.8201L74.9605 51.0901L74.4805 51.3001C73.6805 50.7601 73.6605 49.8601 73.4805 49.0201L73.9605 48.8201Z" fill="black"/>
<path d="M77.0302 23.6299L76.7002 21.2399L77.2202 21.1399L77.7702 23.4699L77.0302 23.6299Z" fill="black"/>
<path d="M88.3 56.3099C88.0183 56.0249 87.8546 55.6441 87.8417 55.2436C87.8287 54.8431 87.9674 54.4525 88.23 54.1499H88.64L88.78 56.3099H88.3Z" fill="black"/>
<path d="M94.2297 28.48C94.2912 28.6882 94.3094 28.9068 94.2831 29.1223C94.2569 29.3378 94.1868 29.5456 94.0772 29.733C93.9676 29.9203 93.8208 30.0833 93.6458 30.2118C93.4708 30.3402 93.2713 30.4315 93.0597 30.48L92.7197 30.23L94.2297 28.48Z" fill="black"/>
<path d="M87.6597 37.8701L88.0897 39.3301C87.8573 39.4032 87.62 39.46 87.3797 39.5001C87.2043 39.0318 87.054 38.5545 86.9297 38.0701L87.6597 37.8701Z" fill="black"/>
<path d="M137.02 100.68C136.72 100.25 136.37 99.94 136.43 99.82C136.628 99.5071 136.875 99.2271 137.16 98.99C137.35 99.19 137.74 99.43 137.7 99.58C137.53 99.9788 137.3 100.35 137.02 100.68Z" fill="black"/>
<path d="M101.27 45.2001L103.27 44.1001L103.5 44.5001L101.59 45.7701L101.27 45.2001Z" fill="black"/>
<path d="M85.4098 35.1901L85.3498 36.5001L84.5098 36.3701L84.7798 35.0901L85.4098 35.1901Z" fill="black"/>
<path d="M85.8502 39.42L84.9802 40.16C84.8102 39.93 84.4602 39.67 84.5002 39.49C84.5402 39.31 84.8902 38.99 85.1102 38.74L85.8502 39.42Z" fill="black"/>
</g>
<defs>
<clipPath id="clip0_217_6923">
<rect width="141.04" height="228.49" fill="white" transform="translate(54 11)"/>
</clipPath>
</defs>
</svg>
