<svg width="43" height="51" viewBox="0 0 43 51" fill="none" xmlns="http://www.w3.org/2000/svg">
<g filter="url(#filter0_d_217_6854)">
<g clip-path="url(#clip0_217_6854)">
<path d="M13.6493 25.5575L13.6386 25.5538C13.5677 25.531 13.5023 25.4949 13.4459 25.4478C13.3896 25.4006 13.3436 25.3433 13.3104 25.2791C13.2773 25.2149 13.2577 25.145 13.2527 25.0735C13.2478 25.002 13.2576 24.9303 13.2816 24.8624C14.0927 22.5684 15.1414 20.3945 16.2552 18.2184C16.3211 18.0902 16.437 17.9919 16.5779 17.9448C16.7187 17.8976 16.8733 17.9054 17.0082 17.9665L17.0273 17.9752C17.1601 18.0355 17.2633 18.1428 17.3152 18.2745C17.3671 18.4062 17.3636 18.552 17.3055 18.6813L14.351 25.2565C14.2946 25.3817 14.1912 25.4821 14.0613 25.5378C13.9314 25.5936 13.7844 25.6006 13.6493 25.5575V25.5575Z" fill="#DBE2E5"/>
<path d="M12.7544 28.6587H12.7414C12.6634 28.6416 12.5897 28.6098 12.5247 28.5651C12.4597 28.5204 12.4047 28.4637 12.3628 28.3983C12.3209 28.333 12.2931 28.2603 12.2809 28.1845C12.2688 28.1088 12.2725 28.0314 12.2919 27.957L12.5136 27.1081C12.5329 27.0335 12.5677 26.9633 12.6158 26.9017C12.6639 26.8401 12.7245 26.7884 12.7938 26.7497C12.8631 26.7109 12.9399 26.6858 13.0195 26.6759C13.0991 26.666 13.18 26.6715 13.2573 26.6921H13.2688C13.4201 26.7322 13.5491 26.8272 13.6283 26.957C13.7076 27.0869 13.7308 27.2412 13.6931 27.3872L13.4721 28.2354C13.4341 28.3819 13.3376 28.5082 13.2034 28.5874C13.0692 28.6665 12.908 28.6921 12.7544 28.6587V28.6587Z" fill="#DBE2E5"/>
<path d="M16.606 15.2747L29.2313 22.2483C28.5739 23.2114 27.9363 24.1526 27.2942 25.0865C24.5882 29.038 21.4135 32.6102 17.8383 35.8622C17.6464 36.0365 17.5195 36.0365 17.3032 35.9157C14.9559 34.6075 12.6027 33.3087 10.2437 32.0191C9.97542 31.8726 9.96931 31.7334 10.0297 31.4888C11.3208 26.2071 13.3603 21.1987 16.0029 16.4085C16.2055 16.0437 16.3966 15.6731 16.606 15.2747Z" fill="#2C5F9B"/>
<path d="M31.7135 18.2134L19.0615 11.2215C19.9246 9.37062 21.0773 8.02805 23.5716 7.93722C24.7695 7.89401 25.8198 8.10861 26.8434 8.7495C28.2331 9.61965 29.7138 10.3572 31.1463 11.1666C31.3321 11.2765 31.4879 11.4271 31.6011 11.606C31.9534 12.1359 32.277 12.6827 32.5704 13.2445C33.1376 14.3835 33.1369 15.5473 32.5781 16.6907C32.3296 17.2019 32.0139 17.689 31.7135 18.2134Z" fill="#2C5F9B"/>
<path d="M18.927 12.5002L30.7335 19.0256C31.0108 19.1791 31.2131 19.4318 31.2961 19.7281C31.3791 20.0245 31.3359 20.3403 31.1761 20.6062L31.1646 20.626C31.0043 20.8919 30.7403 21.0859 30.4307 21.1654C30.1211 21.245 29.7912 21.2035 29.5135 21.05L17.7062 14.5269C17.4286 14.3735 17.2259 14.1208 17.1426 13.8243C17.0593 13.5278 17.1023 13.2117 17.262 12.9455L17.275 12.9243C17.4354 12.6582 17.6995 12.464 18.0093 12.3845C18.3191 12.3049 18.6492 12.3466 18.927 12.5002Z" fill="#2C5F9B"/>
<path d="M31.6761 10.0971L26.3794 7.16734C26.8029 6.48251 27.1087 5.74127 27.8769 5.33623C28.5993 4.95609 29.3629 4.86454 30.0937 5.2227C30.7336 5.53399 31.3933 5.8819 31.9016 6.34847C32.627 7.01719 32.7501 7.90492 32.374 8.80656C32.1959 9.24236 31.9276 9.64227 31.6761 10.0971Z" fill="#2C5F9B"/>
</g>
</g>
<defs>
<filter id="filter0_d_217_6854" x="0" y="0" width="43" height="51" filterUnits="userSpaceOnUse" color-interpolation-filters="sRGB">
<feFlood flood-opacity="0" result="BackgroundImageFix"/>
<feColorMatrix in="SourceAlpha" type="matrix" values="0 0 0 0 0 0 0 0 0 0 0 0 0 0 0 0 0 0 127 0" result="hardAlpha"/>
<feOffset dy="5"/>
<feGaussianBlur stdDeviation="5"/>
<feColorMatrix type="matrix" values="0 0 0 0 0.388235 0 0 0 0 0.669647 0 0 0 0 1 0 0 0 0.2 0"/>
<feBlend mode="normal" in2="BackgroundImageFix" result="effect1_dropShadow_217_6854"/>
<feBlend mode="normal" in="SourceGraphic" in2="effect1_dropShadow_217_6854" result="shape"/>
</filter>
<clipPath id="clip0_217_6854">
<rect width="23" height="31" fill="white" transform="translate(10 5)"/>
</clipPath>
</defs>
</svg>
