<svg width="158" height="68" viewBox="0 0 158 68" fill="none" xmlns="http://www.w3.org/2000/svg">
<g filter="url(#filter0_d_217_6875)">
<circle cx="124" cy="30" r="24" fill="white"/>
<path d="M119.608 24.2773L132.233 31.251C131.575 32.2141 130.938 33.1553 130.296 34.0892C127.59 38.0407 124.415 41.6129 120.84 44.8649C120.648 45.0392 120.521 45.0392 120.305 44.9184C117.957 43.6102 115.604 42.3114 113.245 41.0218C112.977 40.8753 112.971 40.7361 113.031 40.4915C114.322 35.2098 116.362 30.2014 119.004 25.4112C119.207 25.0464 119.398 24.6758 119.608 24.2773Z" fill="#DBE2E5"/>
<path d="M134.715 27.2161L122.063 20.2242C122.926 18.3733 124.079 17.0307 126.573 16.9399C127.771 16.8967 128.821 17.1113 129.845 17.7522C131.235 18.6223 132.715 19.3599 134.148 20.1693C134.334 20.2792 134.489 20.4298 134.603 20.6087C134.955 21.1385 135.278 21.6854 135.572 22.2472C136.139 23.3862 136.138 24.55 135.58 25.6934C135.331 26.2046 135.015 26.6917 134.715 27.2161Z" fill="#DBE2E5"/>
<path d="M121.928 21.5029L133.735 28.0282C134.012 28.1818 134.215 28.4344 134.298 28.7308C134.381 29.0272 134.337 29.343 134.178 29.6089L134.166 29.6286C134.006 29.8946 133.742 30.0886 133.432 30.1681C133.123 30.2476 132.793 30.2061 132.515 30.0527L120.708 23.5296C120.43 23.3762 120.227 23.1234 120.144 22.8269C120.061 22.5304 120.104 22.2144 120.264 21.9482L120.277 21.927C120.437 21.6609 120.701 21.4667 121.011 21.3871C121.321 21.3076 121.651 21.3492 121.928 21.5029Z" fill="#DBE2E5"/>
<path d="M134.678 19.0998L129.381 16.17C129.804 15.4852 130.11 14.744 130.878 14.3389C131.601 13.9588 132.364 13.8672 133.095 14.2254C133.735 14.5367 134.395 14.8846 134.903 15.3512C135.628 16.0199 135.752 16.9076 135.375 17.8092C135.197 18.245 134.929 18.645 134.678 19.0998Z" fill="#DBE2E5"/>
</g>
<defs>
<filter id="filter0_d_217_6875" x="-10" y="0" width="168" height="68" filterUnits="userSpaceOnUse" color-interpolation-filters="sRGB">
<feFlood flood-opacity="0" result="BackgroundImageFix"/>
<feColorMatrix in="SourceAlpha" type="matrix" values="0 0 0 0 0 0 0 0 0 0 0 0 0 0 0 0 0 0 127 0" result="hardAlpha"/>
<feOffset dy="4"/>
<feGaussianBlur stdDeviation="5"/>
<feComposite in2="hardAlpha" operator="out"/>
<feColorMatrix type="matrix" values="0 0 0 0 0 0 0 0 0 0 0 0 0 0 0 0 0 0 0.1 0"/>
<feBlend mode="normal" in2="BackgroundImageFix" result="effect1_dropShadow_217_6875"/>
<feBlend mode="normal" in="SourceGraphic" in2="effect1_dropShadow_217_6875" result="shape"/>
</filter>
</defs>
</svg>
