<svg width="168" height="68" viewBox="0 0 168 68" fill="none" xmlns="http://www.w3.org/2000/svg">
<g filter="url(#filter0_d_217_6879)">
<path d="M10 30C10 16.7452 20.7452 6 34 6H134C147.255 6 158 16.7452 158 30V30C158 43.2548 147.255 54 134 54H34C20.7452 54 10 43.2548 10 30V30Z" fill="white"/>
<path d="M138.502 21C137.629 20.9985 136.767 21.2008 135.986 21.5907C135.205 21.9807 134.526 22.5475 134.002 23.2462C133.293 22.3027 132.305 21.606 131.178 21.2548C130.051 20.9036 128.842 20.9157 127.723 21.2894C126.603 21.663 125.629 22.3793 124.939 23.3368C124.249 24.2943 123.877 25.4447 123.877 26.625C123.877 33.3621 133.237 38.6813 133.635 38.9044C133.747 38.9671 133.874 39 134.002 39C134.13 39 134.256 38.9671 134.368 38.9044C136.09 37.8961 137.706 36.7173 139.191 35.3856C142.466 32.438 144.127 29.4905 144.127 26.625C144.125 25.1337 143.532 23.7039 142.478 22.6494C141.423 21.5949 139.993 21.0017 138.502 21V21Z" fill="#DBE2E5"/>
</g>
<defs>
<filter id="filter0_d_217_6879" x="0" y="0" width="168" height="68" filterUnits="userSpaceOnUse" color-interpolation-filters="sRGB">
<feFlood flood-opacity="0" result="BackgroundImageFix"/>
<feColorMatrix in="SourceAlpha" type="matrix" values="0 0 0 0 0 0 0 0 0 0 0 0 0 0 0 0 0 0 127 0" result="hardAlpha"/>
<feOffset dy="4"/>
<feGaussianBlur stdDeviation="5"/>
<feComposite in2="hardAlpha" operator="out"/>
<feColorMatrix type="matrix" values="0 0 0 0 0 0 0 0 0 0 0 0 0 0 0 0 0 0 0.1 0"/>
<feBlend mode="normal" in2="BackgroundImageFix" result="effect1_dropShadow_217_6879"/>
<feBlend mode="normal" in="SourceGraphic" in2="effect1_dropShadow_217_6879" result="shape"/>
</filter>
</defs>
</svg>
