<svg width="168" height="68" viewBox="0 0 168 68" fill="none" xmlns="http://www.w3.org/2000/svg">
<g filter="url(#filter0_d_217_6876)">
<path d="M10 30C10 16.7452 20.7452 6 34 6H134C147.255 6 158 16.7452 158 30V30C158 43.2548 147.255 54 134 54H34C20.7452 54 10 43.2548 10 30V30Z" fill="white"/>
<path d="M129.608 24.2773L142.233 31.251C141.575 32.2141 140.938 33.1553 140.296 34.0892C137.59 38.0407 134.415 41.6129 130.84 44.8649C130.648 45.0392 130.521 45.0392 130.305 44.9184C127.957 43.6102 125.604 42.3114 123.245 41.0218C122.977 40.8753 122.971 40.7361 123.031 40.4915C124.322 35.2098 126.362 30.2014 129.004 25.4112C129.207 25.0464 129.398 24.6758 129.608 24.2773Z" fill="#DBE2E5"/>
<path d="M144.715 27.2161L132.063 20.2242C132.926 18.3733 134.079 17.0307 136.573 16.9399C137.771 16.8967 138.821 17.1113 139.845 17.7522C141.235 18.6223 142.715 19.3599 144.148 20.1693C144.334 20.2792 144.489 20.4298 144.603 20.6087C144.955 21.1385 145.278 21.6854 145.572 22.2472C146.139 23.3862 146.138 24.55 145.58 25.6934C145.331 26.2046 145.015 26.6917 144.715 27.2161Z" fill="#DBE2E5"/>
<path d="M131.928 21.5029L143.735 28.0282C144.012 28.1818 144.215 28.4344 144.298 28.7308C144.381 29.0272 144.337 29.343 144.178 29.6089L144.166 29.6286C144.006 29.8946 143.742 30.0886 143.432 30.1681C143.123 30.2476 142.793 30.2061 142.515 30.0527L130.708 23.5296C130.43 23.3762 130.227 23.1234 130.144 22.8269C130.061 22.5304 130.104 22.2144 130.264 21.9482L130.277 21.927C130.437 21.6609 130.701 21.4667 131.011 21.3871C131.321 21.3076 131.651 21.3492 131.928 21.5029Z" fill="#DBE2E5"/>
<path d="M144.678 19.0998L139.381 16.17C139.804 15.4852 140.11 14.744 140.878 14.3389C141.601 13.9588 142.364 13.8672 143.095 14.2254C143.735 14.5367 144.395 14.8846 144.903 15.3512C145.628 16.0199 145.752 16.9076 145.375 17.8092C145.197 18.245 144.929 18.645 144.678 19.0998Z" fill="#DBE2E5"/>
</g>
<defs>
<filter id="filter0_d_217_6876" x="0" y="0" width="168" height="68" filterUnits="userSpaceOnUse" color-interpolation-filters="sRGB">
<feFlood flood-opacity="0" result="BackgroundImageFix"/>
<feColorMatrix in="SourceAlpha" type="matrix" values="0 0 0 0 0 0 0 0 0 0 0 0 0 0 0 0 0 0 127 0" result="hardAlpha"/>
<feOffset dy="4"/>
<feGaussianBlur stdDeviation="5"/>
<feComposite in2="hardAlpha" operator="out"/>
<feColorMatrix type="matrix" values="0 0 0 0 0 0 0 0 0 0 0 0 0 0 0 0 0 0 0.1 0"/>
<feBlend mode="normal" in2="BackgroundImageFix" result="effect1_dropShadow_217_6876"/>
<feBlend mode="normal" in="SourceGraphic" in2="effect1_dropShadow_217_6876" result="shape"/>
</filter>
</defs>
</svg>
