<svg width="42" height="40" viewBox="0 0 42 40" fill="none" xmlns="http://www.w3.org/2000/svg">
<g filter="url(#filter0_d_217_6856)">
<path d="M25.502 7.00001C24.6288 6.99851 23.7674 7.20077 22.9862 7.59072C22.205 7.98066 21.5256 8.54752 21.002 9.24621C20.2928 8.30266 19.3049 7.606 18.178 7.25482C17.0511 6.90365 15.8423 6.91573 14.7227 7.28936C13.603 7.663 12.6292 8.37926 11.9391 9.3368C11.2489 10.2943 10.8774 11.4447 10.877 12.625C10.877 19.3621 20.237 24.6813 20.6355 24.9044C20.7474 24.9671 20.8736 25 21.002 25C21.1303 25 21.2565 24.9671 21.3684 24.9044C23.0899 23.8961 24.7056 22.7173 26.1912 21.3856C29.4663 18.438 31.127 15.4905 31.127 12.625C31.1253 11.1337 30.5321 9.70393 29.4776 8.6494C28.423 7.59487 26.9933 7.0017 25.502 7.00001V7.00001Z" fill="#FF6363"/>
</g>
<defs>
<filter id="filter0_d_217_6856" x="0.876953" y="2" width="40.25" height="38" filterUnits="userSpaceOnUse" color-interpolation-filters="sRGB">
<feFlood flood-opacity="0" result="BackgroundImageFix"/>
<feColorMatrix in="SourceAlpha" type="matrix" values="0 0 0 0 0 0 0 0 0 0 0 0 0 0 0 0 0 0 127 0" result="hardAlpha"/>
<feOffset dy="5"/>
<feGaussianBlur stdDeviation="5"/>
<feColorMatrix type="matrix" values="0 0 0 0 1 0 0 0 0 0.388235 0 0 0 0 0.388235 0 0 0 0.2 0"/>
<feBlend mode="normal" in2="BackgroundImageFix" result="effect1_dropShadow_217_6856"/>
<feBlend mode="normal" in="SourceGraphic" in2="effect1_dropShadow_217_6856" result="shape"/>
</filter>
</defs>
</svg>
