<svg width="38" height="38" viewBox="0 0 38 38" fill="none" xmlns="http://www.w3.org/2000/svg">
<path d="M24.5417 22.1667H23.2908L22.8475 21.7392C24.7475 19.5225 25.7292 16.4983 25.1908 13.2842C24.4467 8.88251 20.7733 5.36751 16.34 4.82918C9.64251 4.00585 4.00585 9.64251 4.82918 16.34C5.36751 20.7733 8.88251 24.4467 13.2842 25.1908C16.4983 25.7292 19.5225 24.7475 21.7392 22.8475L22.1667 23.2908V24.5417L28.8958 31.2708C29.545 31.92 30.6058 31.92 31.255 31.2708C31.9042 30.6217 31.9042 29.5608 31.255 28.9117L24.5417 22.1667ZM15.0417 22.1667C11.0992 22.1667 7.91668 18.9842 7.91668 15.0417C7.91668 11.0992 11.0992 7.91668 15.0417 7.91668C18.9842 7.91668 22.1667 11.0992 22.1667 15.0417C22.1667 18.9842 18.9842 22.1667 15.0417 22.1667Z" fill="black"/>
</svg>
