<svg width="158" height="68" viewBox="0 0 158 68" fill="none" xmlns="http://www.w3.org/2000/svg">
<g filter="url(#filter0_d_217_6877)">
<circle cx="124" cy="30" r="24" fill="white"/>
<g filter="url(#filter1_d_217_6877)">
<g clip-path="url(#clip0_217_6877)">
<path d="M115.649 35.5575L115.639 35.5538C115.568 35.531 115.502 35.4949 115.446 35.4478C115.39 35.4006 115.344 35.3433 115.31 35.2791C115.277 35.2149 115.258 35.145 115.253 35.0735C115.248 35.002 115.258 34.9303 115.282 34.8624C116.093 32.5684 117.141 30.3945 118.255 28.2184C118.321 28.0902 118.437 27.9919 118.578 27.9448C118.719 27.8976 118.873 27.9054 119.008 27.9665L119.027 27.9752C119.16 28.0355 119.263 28.1428 119.315 28.2745C119.367 28.4062 119.364 28.552 119.306 28.6813L116.351 35.2565C116.295 35.3817 116.191 35.4821 116.061 35.5378C115.931 35.5936 115.784 35.6006 115.649 35.5575V35.5575Z" fill="#DBE2E5"/>
<path d="M114.754 38.6587H114.741C114.663 38.6416 114.59 38.6098 114.525 38.5651C114.46 38.5204 114.405 38.4637 114.363 38.3983C114.321 38.333 114.293 38.2603 114.281 38.1845C114.269 38.1088 114.272 38.0314 114.292 37.957L114.514 37.1081C114.533 37.0335 114.568 36.9633 114.616 36.9017C114.664 36.8401 114.724 36.7884 114.794 36.7497C114.863 36.7109 114.94 36.6858 115.019 36.6759C115.099 36.666 115.18 36.6715 115.257 36.6921H115.269C115.42 36.7322 115.549 36.8272 115.628 36.957C115.708 37.0869 115.731 37.2412 115.693 37.3872L115.472 38.2354C115.434 38.3819 115.338 38.5082 115.203 38.5874C115.069 38.6665 114.908 38.6921 114.754 38.6587V38.6587Z" fill="#DBE2E5"/>
<path d="M118.606 25.2747L131.231 32.2483C130.574 33.2114 129.936 34.1526 129.294 35.0865C126.588 39.038 123.414 42.6102 119.838 45.8622C119.646 46.0365 119.52 46.0365 119.303 45.9157C116.956 44.6075 114.603 43.3087 112.244 42.0191C111.975 41.8726 111.969 41.7334 112.03 41.4888C113.321 36.2071 115.36 31.1987 118.003 26.4085C118.205 26.0437 118.397 25.6731 118.606 25.2747Z" fill="#2C5F9B"/>
<path d="M133.714 28.2134L121.062 21.2215C121.925 19.3706 123.077 18.028 125.572 17.9372C126.769 17.894 127.82 18.1086 128.843 18.7495C130.233 19.6196 131.714 20.3572 133.146 21.1666C133.332 21.2765 133.488 21.4271 133.601 21.606C133.953 22.1359 134.277 22.6827 134.57 23.2445C135.138 24.3835 135.137 25.5473 134.578 26.6907C134.33 27.2019 134.014 27.689 133.714 28.2134Z" fill="#2C5F9B"/>
<path d="M120.927 22.5002L132.733 29.0256C133.011 29.1791 133.213 29.4318 133.296 29.7281C133.379 30.0245 133.336 30.3403 133.176 30.6062L133.165 30.626C133.004 30.8919 132.74 31.0859 132.431 31.1654C132.121 31.245 131.791 31.2035 131.513 31.05L119.706 24.5269C119.429 24.3735 119.226 24.1208 119.143 23.8243C119.059 23.5278 119.102 23.2117 119.262 22.9455L119.275 22.9243C119.435 22.6582 119.7 22.464 120.009 22.3845C120.319 22.3049 120.649 22.3466 120.927 22.5002Z" fill="#2C5F9B"/>
<path d="M133.676 20.0971L128.379 17.1673C128.803 16.4825 129.109 15.7413 129.877 15.3362C130.599 14.9561 131.363 14.8645 132.094 15.2227C132.734 15.534 133.393 15.8819 133.902 16.3485C134.627 17.0172 134.75 17.9049 134.374 18.8066C134.196 19.2424 133.928 19.6423 133.676 20.0971Z" fill="#2C5F9B"/>
</g>
</g>
</g>
<defs>
<filter id="filter0_d_217_6877" x="-10" y="0" width="168" height="68" filterUnits="userSpaceOnUse" color-interpolation-filters="sRGB">
<feFlood flood-opacity="0" result="BackgroundImageFix"/>
<feColorMatrix in="SourceAlpha" type="matrix" values="0 0 0 0 0 0 0 0 0 0 0 0 0 0 0 0 0 0 127 0" result="hardAlpha"/>
<feOffset dy="4"/>
<feGaussianBlur stdDeviation="5"/>
<feComposite in2="hardAlpha" operator="out"/>
<feColorMatrix type="matrix" values="0 0 0 0 0 0 0 0 0 0 0 0 0 0 0 0 0 0 0.1 0"/>
<feBlend mode="normal" in2="BackgroundImageFix" result="effect1_dropShadow_217_6877"/>
<feBlend mode="normal" in="SourceGraphic" in2="effect1_dropShadow_217_6877" result="shape"/>
</filter>
<filter id="filter1_d_217_6877" x="102" y="10" width="43" height="51" filterUnits="userSpaceOnUse" color-interpolation-filters="sRGB">
<feFlood flood-opacity="0" result="BackgroundImageFix"/>
<feColorMatrix in="SourceAlpha" type="matrix" values="0 0 0 0 0 0 0 0 0 0 0 0 0 0 0 0 0 0 127 0" result="hardAlpha"/>
<feOffset dy="5"/>
<feGaussianBlur stdDeviation="5"/>
<feColorMatrix type="matrix" values="0 0 0 0 0.388235 0 0 0 0 0.669647 0 0 0 0 1 0 0 0 0.2 0"/>
<feBlend mode="normal" in2="BackgroundImageFix" result="effect1_dropShadow_217_6877"/>
<feBlend mode="normal" in="SourceGraphic" in2="effect1_dropShadow_217_6877" result="shape"/>
</filter>
<clipPath id="clip0_217_6877">
<rect width="23" height="31" fill="white" transform="translate(112 15)"/>
</clipPath>
</defs>
</svg>
