<svg width="32" height="32" viewBox="0 0 32 32" fill="none" xmlns="http://www.w3.org/2000/svg">
<path d="M20.502 7.00001C19.6288 6.99851 18.7674 7.20077 17.9862 7.59072C17.205 7.98066 16.5256 8.54752 16.002 9.24621C15.2928 8.30266 14.3049 7.606 13.178 7.25482C12.0511 6.90365 10.8423 6.91573 9.72267 7.28936C8.60303 7.663 7.62923 8.37926 6.93907 9.3368C6.24892 10.2943 5.87735 11.4447 5.87695 12.625C5.87695 19.3621 15.237 24.6813 15.6355 24.9044C15.7474 24.9671 15.8736 25 16.002 25C16.1303 25 16.2565 24.9671 16.3684 24.9044C18.0899 23.8961 19.7056 22.7173 21.1912 21.3856C24.4663 18.438 26.127 15.4905 26.127 12.625C26.1253 11.1337 25.5321 9.70393 24.4776 8.6494C23.423 7.59487 21.9933 7.0017 20.502 7.00001V7.00001Z" fill="#DBE2E5"/>
</svg>
