<svg width="32" height="32" viewBox="0 0 32 32" fill="none" xmlns="http://www.w3.org/2000/svg">
<path d="M11.6075 10.2773L24.2327 17.251C23.5753 18.2141 22.9378 19.1553 22.2957 20.0892C19.5896 24.0407 16.415 27.6129 12.8398 30.8649C12.6479 31.0392 12.521 31.0392 12.3047 30.9184C9.95737 29.6102 7.60421 28.3114 5.2452 27.0218C4.97689 26.8753 4.97077 26.7361 5.03116 26.4915C6.32227 21.2098 8.36176 16.2014 11.0044 11.4112C11.2069 11.0464 11.3981 10.6758 11.6075 10.2773Z" fill="#DBE2E5"/>
<path d="M26.715 13.2161L14.063 6.22419C14.926 4.3733 16.0788 3.03073 18.5731 2.93991C19.7709 2.89669 20.8213 3.1113 21.8448 3.75219C23.2346 4.62233 24.7152 5.35991 26.1478 6.16926C26.3335 6.27922 26.4894 6.42983 26.6026 6.60872C26.9549 7.13855 27.2784 7.68543 27.5719 8.2472C28.1391 9.38615 28.1383 10.55 27.5795 11.6934C27.3311 12.2046 27.0154 12.6917 26.715 13.2161Z" fill="#DBE2E5"/>
<path d="M13.9284 7.50289L25.735 14.0282C26.0122 14.1818 26.2146 14.4344 26.2976 14.7308C26.3806 15.0272 26.3374 15.343 26.1776 15.6089L26.1661 15.6286C26.0057 15.8946 25.7417 16.0886 25.4321 16.1681C25.1225 16.2476 24.7926 16.2061 24.5149 16.0527L12.7076 9.52957C12.4301 9.37616 12.2274 9.12345 12.1441 8.82695C12.0608 8.53045 12.1038 8.2144 12.2635 7.94822L12.2765 7.92698C12.4369 7.66085 12.701 7.46667 13.0108 7.38714C13.3206 7.30761 13.6507 7.34924 13.9284 7.50289Z" fill="#DBE2E5"/>
<path d="M26.6776 5.09981L21.3809 2.17003C21.8044 1.48519 22.1101 0.743959 22.8784 0.338917C23.6007 -0.0412222 24.3644 -0.132778 25.0952 0.225388C25.735 0.536677 26.3947 0.884588 26.9031 1.35116C27.6285 2.01988 27.7516 2.9076 27.3755 3.80924C27.1974 4.24505 26.9291 4.64496 26.6776 5.09981Z" fill="#DBE2E5"/>
</svg>
