<svg width="110" height="33" viewBox="0 0 110 33" fill="none" xmlns="http://www.w3.org/2000/svg">
<path d="M6.84 25.576C5.496 25.576 4.312 25.3413 3.288 24.872C2.264 24.4027 1.47467 23.752 0.92 22.92C0.365333 22.0667 0.0880001 21.0853 0.0880001 19.976C0.0880001 19.0373 0.28 18.184 0.664 17.416C1.06933 16.648 1.60267 16.04 2.264 15.592C2.94667 15.144 3.69333 14.92 4.504 14.92C5.25067 14.92 5.88 15.112 6.392 15.496C6.904 15.8587 7.224 16.3707 7.352 17.032C6.24267 17.032 5.35733 17.3307 4.696 17.928C4.03467 18.504 3.704 19.2933 3.704 20.296C3.704 21.2133 3.98133 21.9493 4.536 22.504C5.09067 23.0587 5.82667 23.336 6.744 23.336C7.87467 23.336 8.80267 22.9627 9.528 22.216C10.2747 21.448 10.648 20.488 10.648 19.336C10.648 18.3333 10.3707 17.384 9.816 16.488C9.26133 15.592 8.42933 14.504 7.32 13.224C6.168 11.9013 5.29333 10.7707 4.696 9.832C4.12 8.872 3.832 7.82667 3.832 6.696C3.832 5.58667 4.14133 4.59467 4.76 3.72C5.37867 2.824 6.232 2.12 7.32 1.608C8.408 1.096 9.63467 0.839998 11 0.839998C12.728 0.839998 14.104 1.24533 15.128 2.056C16.1733 2.86667 16.696 3.95467 16.696 5.32C16.696 6.216 16.472 6.94133 16.024 7.496C15.576 8.05067 14.9893 8.328 14.264 8.328C13.4533 8.328 12.8027 7.99733 12.312 7.336C12.7173 7.03733 13.0373 6.64267 13.272 6.152C13.5067 5.66133 13.624 5.14933 13.624 4.616C13.624 3.93333 13.4213 3.38933 13.016 2.984C12.6107 2.57867 12.056 2.376 11.352 2.376C10.4987 2.376 9.79467 2.68533 9.24 3.304C8.70667 3.90133 8.44 4.66933 8.44 5.608C8.44 6.46133 8.68533 7.26133 9.176 8.008C9.66667 8.73333 10.4347 9.672 11.48 10.824C12.3333 11.7413 13.016 12.5307 13.528 13.192C14.0613 13.8533 14.5093 14.6213 14.872 15.496C15.256 16.3493 15.448 17.2773 15.448 18.28C15.448 19.6453 15.064 20.8827 14.296 21.992C13.5493 23.1013 12.5147 23.976 11.192 24.616C9.89067 25.256 8.44 25.576 6.84 25.576ZM21.09 25.192C19.874 25.192 18.8607 24.776 18.05 23.944C17.2393 23.112 16.834 21.8107 16.834 20.04C16.834 18.4613 17.1433 16.808 17.762 15.08C18.402 13.3307 19.3407 11.8587 20.578 10.664C21.8367 9.448 23.33 8.84 25.058 8.84C25.9327 8.84 26.5833 8.98933 27.01 9.288C27.4367 9.58667 27.65 9.98133 27.65 10.472V10.696L28.002 9H32.61L30.306 19.88C30.2207 20.2 30.178 20.5413 30.178 20.904C30.178 21.8213 30.6153 22.28 31.49 22.28C32.0873 22.28 32.5993 22.0027 33.026 21.448C33.474 20.8933 33.826 20.168 34.082 19.272H35.426C34.6367 21.576 33.6553 23.144 32.482 23.976C31.33 24.7867 30.1673 25.192 28.994 25.192C28.098 25.192 27.3727 24.9467 26.818 24.456C26.2847 23.944 25.9647 23.208 25.858 22.248C25.2393 23.1227 24.546 23.8373 23.778 24.392C23.0313 24.9253 22.1353 25.192 21.09 25.192ZM23.17 22.088C23.7033 22.088 24.226 21.8427 24.738 21.352C25.2713 20.84 25.634 20.1467 25.826 19.272L27.362 12.04C27.362 11.7627 27.2553 11.496 27.042 11.24C26.8287 10.9627 26.498 10.824 26.05 10.824C25.1967 10.824 24.4287 11.3253 23.746 12.328C23.0633 13.3093 22.53 14.504 22.146 15.912C21.762 17.2987 21.57 18.5253 21.57 19.592C21.57 20.6587 21.7193 21.3413 22.018 21.64C22.338 21.9387 22.722 22.088 23.17 22.088ZM37.2618 25.192C36.2378 25.192 35.4058 24.872 34.7658 24.232C34.1471 23.592 33.8377 22.632 33.8377 21.352C33.8377 20.8187 33.9231 20.1253 34.0938 19.272L36.0138 10.28H34.9578L35.2138 9H36.2698L37.2298 4.584L41.9658 3.944L40.8778 9H42.7978L42.5417 10.28H40.6218L38.5738 19.88C38.4884 20.2 38.4458 20.5413 38.4458 20.904C38.4458 21.3307 38.5418 21.64 38.7338 21.832C38.9471 22.0027 39.2884 22.088 39.7578 22.088C40.3764 22.088 40.9524 21.832 41.4858 21.32C42.0191 20.7867 42.4031 20.104 42.6378 19.272H43.9818C43.1924 21.576 42.1791 23.144 40.9418 23.976C39.7044 24.7867 38.4778 25.192 37.2618 25.192ZM47.297 25.128C45.7183 25.128 44.4703 24.7227 43.553 23.912C42.6357 23.1013 42.177 21.8213 42.177 20.072C42.177 18.6213 42.4757 17.0107 43.073 15.24C43.6703 13.4693 44.6303 11.944 45.953 10.664C47.2757 9.36267 48.9397 8.712 50.945 8.712C53.6757 8.712 55.041 10.4187 55.041 13.832V13.864C55.105 13.8853 55.2223 13.896 55.393 13.896C56.097 13.896 56.9077 13.7147 57.825 13.352C58.7423 12.968 59.5743 12.5093 60.321 11.976L60.609 12.84C59.9903 13.5013 59.1797 14.0667 58.177 14.536C57.1957 14.984 56.1183 15.304 54.945 15.496C54.7743 17.4373 54.337 19.1333 53.633 20.584C52.929 22.0347 52.0223 23.1547 50.913 23.944C49.8037 24.7333 48.5983 25.128 47.297 25.128ZM48.577 22.248C49.089 22.248 49.601 21.96 50.113 21.384C50.625 20.7867 51.073 19.9867 51.457 18.984C51.841 17.96 52.1183 16.8293 52.289 15.592C51.713 15.464 51.425 15.016 51.425 14.248C51.425 13.3733 51.7557 12.7973 52.417 12.52C52.3743 11.816 52.2677 11.336 52.097 11.08C51.9263 10.8027 51.6277 10.664 51.201 10.664C50.497 10.664 49.8143 11.176 49.153 12.2C48.4917 13.224 47.9583 14.4507 47.553 15.88C47.1477 17.3093 46.945 18.568 46.945 19.656C46.945 20.68 47.0623 21.3733 47.297 21.736C47.5317 22.0773 47.9583 22.248 48.577 22.248ZM58.8635 9H63.4715L63.0555 10.984C63.7808 10.344 64.4315 9.85333 65.0075 9.512C65.6048 9.17067 66.2448 9 66.9275 9C67.6102 9 68.1435 9.23467 68.5275 9.704C68.9328 10.1733 69.1355 10.7387 69.1355 11.4C69.1355 12.0187 68.9328 12.5627 68.5275 13.032C68.1222 13.5013 67.5568 13.736 66.8315 13.736C66.3622 13.736 66.0422 13.6293 65.8715 13.416C65.7222 13.1813 65.6048 12.8507 65.5195 12.424C65.4555 12.1467 65.3915 11.944 65.3275 11.816C65.2635 11.688 65.1462 11.624 64.9755 11.624C64.5275 11.624 64.1435 11.72 63.8235 11.912C63.5248 12.0827 63.1302 12.392 62.6395 12.84L60.0795 25H55.4715L58.8635 9ZM73.7108 33C72.7081 33 71.8228 32.6693 71.0548 32.008C70.3081 31.368 69.9348 30.5467 69.9348 29.544C69.9348 28.6053 70.1694 27.8373 70.6388 27.24C71.1081 26.6427 71.7161 26.1733 72.4628 25.832C73.2094 25.4907 74.2121 25.128 75.4708 24.744L75.7908 23.336C74.7028 24.5733 73.4014 25.192 71.8868 25.192C70.8628 25.192 70.0308 24.872 69.3908 24.232C68.7721 23.592 68.4627 22.632 68.4627 21.352C68.4627 20.8187 68.5481 20.1253 68.7188 19.272L70.8948 9H75.5028L73.1988 19.88C73.1348 20.136 73.1028 20.4027 73.1028 20.68C73.1028 21.6187 73.4228 22.088 74.0628 22.088C74.6601 22.088 75.1721 21.8427 75.5988 21.352C76.0254 20.84 76.3668 20.1467 76.6228 19.272L78.7988 9H83.4388L79.5348 27.56C79.1081 29.608 78.3508 31.0267 77.2628 31.816C76.1961 32.6053 75.0121 33 73.7108 33ZM72.9748 30.152C73.3588 30.152 73.7214 29.9493 74.0628 29.544C74.4041 29.16 74.6708 28.5307 74.8628 27.656L75.2468 25.768C74.1161 26.152 73.2414 26.6 72.6228 27.112C72.0041 27.624 71.6948 28.2853 71.6948 29.096C71.6948 29.352 71.8228 29.5867 72.0788 29.8C72.3348 30.0347 72.6334 30.152 72.9748 30.152ZM90.1895 0.999998H93.5495L89.0375 7.048H87.2775L90.1895 0.999998ZM97.2105 25.192C96.1865 25.192 95.3225 25 94.6185 24.616C93.9145 24.2107 93.3918 23.6987 93.0505 23.08C92.7092 22.44 92.5385 21.7787 92.5385 21.096C92.5385 20.392 92.7092 19.784 93.0505 19.272C93.3705 18.7387 93.7652 18.3547 94.2345 18.12C95.0665 16.6267 95.7918 15.1227 96.4105 13.608C97.0292 12.072 97.6158 10.4187 98.1705 8.648L102.907 8.008C103.013 10.7387 103.195 13.6933 103.451 16.872C103.557 18.152 103.611 19.08 103.611 19.656C103.611 20.9573 103.28 22.024 102.619 22.856C101.957 23.688 101.136 24.2853 100.155 24.648C99.1945 25.0107 98.2132 25.192 97.2105 25.192ZM96.1865 22.664C96.9758 22.664 97.6372 22.4293 98.1705 21.96C98.7038 21.4907 98.9705 20.7333 98.9705 19.688C98.9705 19.048 98.9065 18.152 98.7785 17C98.5652 14.568 98.4265 12.936 98.3625 12.104C97.8505 13.7893 96.9865 15.8053 95.7705 18.152C96.2612 18.408 96.5065 18.7813 96.5065 19.272C96.5065 19.6773 96.3678 20.04 96.0905 20.36C95.8345 20.68 95.5038 20.84 95.0985 20.84C94.6505 20.84 94.3625 20.7013 94.2345 20.424C94.2345 21.192 94.3838 21.7573 94.6825 22.12C95.0025 22.4827 95.5038 22.664 96.1865 22.664Z" fill="black"/>
<path d="M107.208 25.128C106.504 25.128 105.906 24.8827 105.416 24.392C104.925 23.9013 104.68 23.304 104.68 22.6C104.68 21.896 104.925 21.2987 105.416 20.808C105.906 20.296 106.504 20.04 107.208 20.04C107.912 20.04 108.509 20.296 109 20.808C109.512 21.2987 109.768 21.896 109.768 22.6C109.768 23.304 109.512 23.9013 109 24.392C108.509 24.8827 107.912 25.128 107.208 25.128Z" fill="#FF7426"/>
</svg>
